{"glyphs":{"0":{"ha":772,"x_min":108,"x_max":663,"o":"m 643 760 q 653 688 649 728 q 658 602 656 651 q 661 488 661 553 q 659 363 663 415 q 653 275 656 311 q 643 204 647 233 q 599 97 626 140 q 535 28 571 54 q 458 -10 500 1 q 371 -21 417 -21 q 243 9 293 -18 q 163 68 193 36 q 108 149 126 104 l 108 488 l 108 817 q 163 901 126 864 q 197 932 178 917 q 242 959 217 947 q 300 978 268 971 q 371 986 332 986 q 458 976 417 986 q 535 940 500 965 q 599 870 571 914 q 643 760 626 826 m 568 243 q 576 364 575 307 q 578 478 578 421 l 578 488 l 578 497 q 576 606 578 546 q 568 722 575 665 q 525 833 551 785 q 465 908 501 875 q 371 939 428 942 q 315 931 343 939 q 264 908 288 924 q 222 867 240 893 q 193 807 203 842 l 193 167 q 222 106 203 132 q 264 62 240 79 q 315 35 288 44 q 371 26 343 26 q 465 56 428 22 q 525 131 501 89 q 568 243 551 179 z "},"1":{"ha":772,"x_min":217,"x_max":476,"o":"m 390 660 q 378 771 393 715 q 331 869 364 818 q 232 958 299 919 q 219 968 224 963 q 219 974 217 971 q 240 978 222 978 q 361 924 308 963 q 405 883 383 907 q 442 828 426 860 q 467 754 458 796 q 475 660 476 713 l 475 -1 l 390 -1 l 390 660 z "},"2":{"ha":772,"x_min":35,"x_max":599,"o":"m 114 889 q 93 892 99 888 q 90 903 88 894 q 114 926 93 911 q 190 963 136 946 q 308 985 244 981 q 433 977 371 990 q 538 924 496 964 q 589 810 579 883 q 556 621 599 738 l 188 78 l 575 78 l 575 0 l 35 0 l 458 622 q 490 694 476 653 q 506 775 504 735 q 490 850 507 815 q 428 904 472 885 q 308 922 385 924 q 114 889 232 921 z "},"3":{"ha":772,"x_min":143,"x_max":615,"o":"m 510 382 q 445 429 486 413 q 357 453 404 446 q 264 463 310 461 q 183 464 218 464 q 158 469 168 464 q 145 481 147 475 q 151 494 143 488 q 185 501 160 500 q 319 508 256 499 q 428 539 374 517 q 510 606 482 561 q 518 651 515 614 q 514 735 521 688 q 487 830 507 782 q 428 909 467 878 q 329 946 390 940 q 179 914 268 951 q 154 918 161 914 q 149 928 147 921 q 171 949 150 935 q 263 981 213 972 q 362 982 306 988 q 485 942 418 976 q 563 863 531 915 q 588 810 576 840 q 606 742 599 781 q 613 656 613 703 q 603 550 613 608 q 574 526 589 538 q 539 505 558 515 q 496 483 519 494 q 539 460 519 472 q 574 436 558 447 q 603 410 589 422 q 598 217 615 292 q 556 100 581 143 q 485 25 526 50 q 362 -16 418 -11 q 263 -14 306 -21 q 171 18 213 -6 q 149 38 150 31 q 154 49 147 46 q 179 53 161 53 q 327 20 268 14 q 424 59 386 26 q 479 141 461 92 q 504 240 497 190 q 510 329 511 289 q 510 382 510 369 z "},"4":{"ha":772,"x_min":39,"x_max":690,"o":"m 690 385 l 558 385 l 558 -1 l 472 -1 l 469 385 l 124 385 l 154 385 l 106 385 l 39 385 l 256 811 q 306 892 278 858 q 363 947 333 925 q 422 980 392 968 q 481 997 453 992 q 614 992 546 1010 q 630 984 629 988 q 628 978 631 981 q 614 972 622 974 q 486 937 539 968 q 399 869 433 906 q 332 775 358 826 l 161 433 l 469 433 l 472 783 l 558 783 l 558 433 l 690 433 l 690 385 z "},"5":{"ha":772,"x_min":129,"x_max":658,"o":"m 625 486 q 656 266 658 353 q 638 128 654 179 q 582 35 618 67 q 497 -8 542 3 q 386 -18 453 -19 q 271 -3 317 -18 q 197 31 225 13 q 147 79 164 51 q 142 98 136 96 q 158 96 147 100 q 190 79 171 90 q 365 37 294 38 q 478 62 435 36 q 542 133 522 88 q 567 228 563 178 q 565 328 572 279 q 547 411 558 378 l 129 550 l 129 978 l 190 978 l 519 978 q 549 988 531 982 q 582 1006 568 994 q 597 1014 592 1013 q 607 1012 603 1015 q 608 996 611 1008 q 560 958 592 975 q 488 931 532 943 q 378 915 444 918 l 210 915 l 210 582 l 625 486 l 625 486 z "},"6":{"ha":772,"x_min":107,"x_max":656,"o":"m 656 138 q 603 64 638 97 q 524 10 574 36 q 399 -18 474 -15 q 313 -7 354 -18 q 235 30 271 4 q 170 96 199 56 q 125 194 142 136 q 110 339 114 263 q 111 483 107 403 q 136 642 115 563 q 229 826 175 746 q 281 894 251 861 q 344 951 310 926 q 417 989 378 975 q 500 1000 456 1003 q 506 992 507 997 q 496 982 504 988 q 464 969 488 976 q 385 917 424 949 q 315 840 347 886 q 257 731 282 794 q 218 582 232 667 l 656 483 l 656 138 m 574 411 l 207 526 q 201 459 204 492 q 198 392 199 426 q 199 317 197 357 q 207 231 200 278 q 246 129 221 174 q 304 60 268 92 q 399 29 340 29 q 504 58 454 29 q 574 157 554 88 l 574 411 z "},"7":{"ha":772,"x_min":93,"x_max":676,"o":"m 436 329 q 408 226 414 281 q 417 124 404 181 q 481 11 431 68 q 490 -4 488 1 q 490 -12 493 -10 q 472 -7 486 -14 q 376 83 413 29 q 347 134 360 106 q 329 197 335 163 q 328 272 324 232 q 349 357 332 311 l 561 894 l 129 894 q 128 937 132 921 q 116 962 124 953 q 101 974 108 971 q 93 978 94 978 l 676 978 l 436 329 z "},"8":{"ha":772,"x_min":81,"x_max":693,"o":"m 675 382 q 692 233 693 300 q 681 118 690 167 q 649 17 669 63 q 483 -10 556 -3 q 354 -18 410 -18 q 259 -11 299 -18 q 192 7 219 -4 q 107 74 126 31 q 83 190 85 129 q 86 301 81 250 q 107 418 92 361 q 152 461 126 440 q 201 497 178 482 q 256 532 228 515 l 265 532 q 208 551 229 539 q 174 576 186 564 q 153 606 158 590 q 131 715 132 658 q 136 818 129 771 q 161 925 143 874 q 195 960 171 947 q 252 980 219 974 q 323 987 285 986 q 399 985 361 988 q 593 953 488 978 q 620 795 617 868 q 617 668 624 722 q 593 551 610 604 q 546 541 571 543 q 499 532 521 539 q 569 493 538 514 q 622 453 600 472 q 667 410 647 431 l 675 382 m 238 617 q 292 589 254 599 q 380 580 324 581 q 526 599 436 579 q 544 665 539 624 q 547 760 549 701 q 526 907 544 818 q 389 921 450 919 q 290 913 336 922 q 238 876 244 904 q 213 796 219 839 q 209 713 206 760 q 238 617 213 665 m 579 65 q 603 132 594 90 q 611 226 610 168 q 599 372 613 285 q 533 431 568 411 q 468 458 499 450 q 397 467 432 468 q 301 459 339 469 q 238 433 263 449 q 190 392 208 417 q 171 290 176 342 q 171 193 167 246 q 199 92 175 140 q 257 53 211 67 q 372 41 296 42 q 579 65 447 40 z "},"9":{"ha":772,"x_min":117,"x_max":667,"o":"m 117 846 q 172 919 136 886 q 252 972 203 947 q 378 1001 301 997 q 464 990 422 1001 q 542 953 506 979 q 606 888 578 928 q 650 789 633 847 q 664 644 660 719 q 662 500 667 579 q 636 342 657 421 q 550 156 601 236 q 501 89 528 121 q 440 32 474 57 q 369 -6 407 7 q 286 -17 331 -19 q 274 -8 276 -14 q 278 1 271 -4 q 308 14 285 7 q 386 63 350 32 q 453 140 422 93 q 513 253 485 186 q 564 411 540 319 l 117 511 l 117 846 m 199 586 l 571 469 q 576 535 574 504 q 578 598 578 565 q 574 667 578 631 q 565 753 571 704 q 526 853 551 808 q 468 922 504 890 q 374 954 432 954 q 267 924 317 954 q 199 826 218 894 l 199 586 z "},"’":{"ha":386,"x_min":83,"x_max":304,"o":"m 96 988 q 197 998 146 1013 q 276 936 249 983 q 295 812 304 889 q 215 635 286 735 q 199 619 206 624 q 186 613 192 615 q 176 611 181 610 q 172 619 171 614 q 175 629 172 624 q 183 643 178 635 q 203 689 190 654 q 224 763 217 724 q 228 835 231 801 q 200 876 225 868 q 143 865 164 865 q 111 871 122 865 q 93 888 97 876 q 84 928 85 910 q 86 960 83 946 q 96 988 89 975 z "},"(":{"ha":540,"x_min":146,"x_max":415,"o":"m 389 -351 q 267 -290 321 -333 q 222 -247 243 -272 q 183 -187 200 -221 q 156 -109 167 -153 q 146 -10 146 -65 l 146 690 q 156 788 146 744 q 183 867 167 832 q 222 927 200 901 q 267 971 243 953 q 389 1032 321 1014 q 411 1027 407 1032 q 413 1017 415 1022 q 400 1003 410 1011 q 299 913 333 967 q 250 810 264 858 q 233 690 233 751 l 233 -10 q 250 -129 233 -72 q 299 -233 265 -179 q 400 -322 333 -286 q 413 -337 410 -332 q 411 -347 415 -343 q 389 -351 407 -351 z "},")":{"ha":540,"x_min":125,"x_max":394,"o":"m 151 -351 q 128 -347 132 -351 q 128 -337 125 -343 q 140 -322 131 -332 q 240 -233 206 -286 q 290 -129 275 -179 q 307 -10 307 -72 l 307 690 q 290 810 307 751 q 271 861 283 835 q 240 913 258 888 q 198 961 222 938 q 140 1003 174 985 q 128 1017 131 1011 q 128 1027 125 1022 q 151 1032 132 1032 q 272 971 218 1014 q 317 927 294 953 q 356 867 339 901 q 384 788 374 832 q 394 690 394 744 l 394 -10 q 384 -109 394 -65 q 356 -187 374 -153 q 317 -247 339 -221 q 272 -290 294 -272 q 151 -351 218 -333 z "},"*":{"ha":694,"x_min":46,"x_max":632,"o":"m 322 694 l 308 944 q 353 952 339 947 q 378 972 367 957 q 373 889 376 933 q 366 804 369 844 q 359 734 363 764 q 354 694 356 704 l 583 782 q 604 743 594 754 q 632 725 614 732 q 547 703 593 714 q 461 683 501 692 q 392 668 421 674 q 357 661 363 663 l 493 463 q 460 433 468 444 q 449 403 451 422 q 414 465 432 432 q 380 531 396 499 q 351 591 364 564 q 331 635 339 618 l 322 694 m 331 635 q 310 591 324 618 q 281 531 297 564 q 248 465 265 499 q 214 403 231 432 q 203 433 211 422 q 169 463 194 444 l 307 664 q 260 673 290 667 q 194 688 231 679 q 118 706 157 696 q 46 725 79 715 q 74 743 64 732 q 94 782 83 754 l 322 694 l 331 635 z "},"+":{"ha":833,"x_min":65,"x_max":768,"o":"m 768 314 l 454 314 l 454 0 l 379 0 l 379 314 l 103 314 q 94 358 103 342 q 65 389 86 375 l 379 389 l 379 703 l 454 703 l 454 389 l 768 389 l 768 314 z "},",":{"ha":386,"x_min":88,"x_max":308,"o":"m 100 104 q 201 115 150 129 q 281 53 253 100 q 299 -72 308 6 q 219 -249 290 -149 q 203 -264 210 -260 q 190 -271 196 -268 q 181 -272 185 -274 q 176 -265 175 -269 q 179 -254 176 -260 q 188 -240 182 -249 q 208 -194 194 -229 q 228 -121 221 -160 q 232 -49 235 -82 q 204 -7 229 -15 q 147 -18 168 -18 q 115 -12 126 -18 q 97 4 101 -7 q 88 44 89 26 q 90 76 88 63 q 100 104 93 92 z "},"-":{"ha":540,"x_min":106,"x_max":446,"o":"m 446 300 l 181 300 l 143 300 q 135 344 143 328 q 106 375 126 361 l 446 375 l 446 300 z "},".":{"ha":386,"x_min":131,"x_max":257,"o":"m 247 101 q 256 52 254 72 q 254 18 257 32 q 247 -7 251 3 q 190 -18 211 -18 q 158 -12 169 -18 q 140 4 144 -7 q 131 42 132 26 q 133 69 131 58 q 143 90 136 82 q 171 106 153 103 q 206 108 189 110 q 247 101 225 107 z "},"/":{"ha":540,"x_min":22,"x_max":692,"o":"m 108 -22 l 22 -22 q 188 401 119 219 q 322 710 256 583 q 468 908 389 836 q 664 1000 547 979 q 686 999 681 1001 q 688 990 692 996 q 656 969 683 983 q 564 911 610 947 q 482 827 525 879 q 407 696 439 775 l 108 -22 z "},":":{"ha":386,"x_min":124,"x_max":264,"o":"m 253 117 q 262 62 260 85 q 261 24 264 39 q 253 -4 258 7 q 189 -17 213 -17 q 153 -11 165 -17 q 133 8 138 -6 q 124 50 124 32 q 126 79 124 68 q 136 103 131 93 q 167 121 147 117 q 206 124 186 125 q 253 117 228 122 m 253 515 q 262 460 260 483 q 261 422 264 438 q 253 394 258 406 q 189 382 213 382 q 153 388 165 382 q 133 407 138 393 q 124 449 124 431 q 126 478 124 467 q 136 501 131 492 q 167 519 147 515 q 206 522 186 524 q 253 515 228 521 z "},";":{"ha":386,"x_min":88,"x_max":308,"o":"m 253 515 q 262 460 260 483 q 261 422 264 438 q 253 394 258 406 q 189 382 213 382 q 153 388 165 382 q 133 407 138 393 q 124 449 124 431 q 126 478 124 467 q 136 501 131 492 q 167 519 147 515 q 206 522 186 524 q 253 515 228 521 m 100 110 q 201 120 150 135 q 281 58 253 106 q 299 -66 308 11 q 219 -243 290 -143 q 203 -258 210 -254 q 190 -265 196 -262 q 181 -267 185 -268 q 176 -259 175 -264 q 179 -249 176 -254 q 188 -235 182 -243 q 208 -189 194 -224 q 228 -115 221 -154 q 232 -43 235 -76 q 204 -1 229 -10 q 147 -12 168 -12 q 115 -7 126 -12 q 97 10 101 -1 q 88 50 89 32 q 90 82 88 68 q 100 110 93 97 z "},"<":{"ha":833,"x_min":65,"x_max":767,"o":"m 65 300 l 65 401 l 686 674 q 719 625 696 647 q 767 593 742 603 q 734 579 744 583 q 708 569 724 575 q 663 553 692 564 q 578 518 635 542 q 430 455 522 494 q 193 353 338 415 l 767 117 l 767 18 l 65 300 z "},"=":{"ha":833,"x_min":65,"x_max":768,"o":"m 768 174 l 140 174 l 103 174 q 94 218 103 201 q 65 249 86 235 l 768 249 l 768 174 m 768 446 l 140 446 l 103 446 q 94 490 103 474 q 65 521 86 507 l 768 521 l 768 446 z "},">":{"ha":833,"x_min":67,"x_max":768,"o":"m 67 18 l 67 117 l 640 353 q 403 455 496 415 q 255 518 311 494 q 170 553 199 542 q 126 569 142 564 q 99 579 110 575 q 67 593 88 583 q 115 625 92 603 q 147 674 138 647 l 768 401 l 768 300 l 67 18 z "},"?":{"ha":694,"x_min":128,"x_max":546,"o":"m 274 989 q 392 987 342 1001 q 476 950 442 972 q 544 886 515 924 q 545 742 546 797 q 544 656 544 688 q 543 603 543 619 q 353 452 414 521 q 272 333 293 383 q 260 228 247 275 q 254 202 260 206 q 242 203 249 199 q 225 221 235 208 q 217 304 214 264 q 234 381 221 344 q 267 448 247 417 q 311 506 288 479 q 442 615 365 567 q 445 713 444 668 q 444 792 446 757 q 442 865 443 831 q 411 903 432 889 q 375 922 390 918 q 271 929 314 940 q 201 897 228 918 q 150 835 169 872 q 135 825 140 821 q 128 843 129 829 q 134 878 128 857 q 158 920 140 899 q 203 960 175 942 q 274 989 231 979 m 300 115 q 254 122 276 121 q 217 120 235 124 q 188 103 199 117 q 178 81 182 94 q 175 51 175 69 q 185 10 175 33 q 204 -8 189 -3 q 238 -14 215 -14 q 300 -1 261 -14 q 307 25 304 8 q 308 61 310 39 q 300 115 307 83 z "},"@":{"ha":1111,"x_min":35,"x_max":1071,"o":"m 368 415 q 444 465 397 440 q 548 514 485 488 q 703 567 611 540 q 678 653 703 617 q 651 683 667 668 q 610 708 635 697 q 553 722 586 718 q 478 722 521 726 q 468 719 474 719 q 451 722 458 717 q 462 733 451 729 q 486 739 472 736 q 622 742 561 750 q 674 730 649 738 q 719 708 699 722 q 756 670 740 693 q 775 615 771 647 l 775 271 q 822 254 792 254 q 911 282 872 254 q 976 354 950 310 q 1015 453 1001 399 q 1029 561 1029 508 q 999 693 1029 625 q 913 817 969 761 q 774 910 857 874 q 585 946 690 946 q 407 917 490 946 q 262 831 324 889 q 165 683 200 772 q 129 471 129 593 q 164 313 129 392 q 261 171 199 233 q 410 69 324 108 q 600 31 497 31 q 698 35 654 31 q 779 47 742 39 q 849 68 817 56 q 913 96 882 81 q 925 101 919 100 q 946 99 939 104 q 940 78 953 90 q 926 67 935 72 q 755 -1 839 18 q 603 -21 671 -21 q 347 27 454 -21 q 171 148 240 75 q 68 306 101 221 q 35 467 35 392 q 78 683 35 585 q 195 851 121 781 q 369 959 269 921 q 585 997 469 997 q 775 965 686 997 q 929 874 864 932 q 1033 736 994 815 q 1071 564 1071 657 q 1000 303 1071 394 q 800 213 929 213 q 750 218 774 213 q 707 235 726 224 l 693 229 q 608 208 656 218 q 515 199 561 199 q 428 211 468 199 q 368 257 389 224 q 357 304 361 279 q 356 355 354 326 q 368 415 357 383 m 703 515 q 586 465 636 489 q 503 422 536 442 q 436 381 464 400 q 428 340 426 360 q 435 306 429 321 q 451 274 440 289 q 515 245 474 249 q 599 249 557 242 q 703 274 647 256 l 703 515 z "},"A":{"ha":926,"x_min":76,"x_max":856,"o":"m 824 26 q 849 9 843 15 q 856 -1 856 3 q 851 -7 856 -6 q 844 -8 847 -8 q 826 -3 835 -7 q 811 3 818 0 q 796 10 803 7 q 723 69 756 31 q 667 146 690 108 q 615 239 639 190 l 596 286 l 257 286 l 163 0 l 76 0 l 410 1000 l 449 1000 l 696 267 q 746 138 724 185 q 786 65 768 90 q 824 26 806 36 m 578 357 l 429 811 l 278 357 l 578 357 z "},"B":{"ha":849,"x_min":122,"x_max":740,"o":"m 606 493 q 672 463 646 486 q 713 408 697 440 q 733 335 728 375 q 739 256 739 296 q 710 46 738 161 q 495 8 600 18 q 307 -4 390 -1 q 122 0 210 -7 l 122 976 q 378 987 269 990 q 563 972 488 983 q 710 940 649 960 q 734 795 728 858 q 736 685 740 732 q 721 606 732 639 q 696 553 710 574 q 606 493 661 503 m 206 536 q 321 529 264 532 q 427 528 369 526 q 533 536 485 529 q 619 585 586 544 q 644 626 633 601 q 659 688 656 651 q 658 773 663 725 q 635 883 653 821 q 493 906 567 897 q 355 916 431 913 q 206 913 279 919 l 206 536 m 633 92 q 657 203 651 154 q 660 290 663 253 q 649 353 658 326 q 628 397 640 379 q 551 450 600 439 q 442 458 503 457 q 329 457 382 460 q 206 450 267 454 l 206 64 q 353 68 279 64 q 488 78 426 72 q 624 92 558 83 l 633 92 z "},"C":{"ha":926,"x_min":93,"x_max":868,"o":"m 861 81 q 865 65 868 74 q 829 40 861 56 q 626 -9 715 6 q 469 -24 538 -24 q 351 -12 400 -24 q 268 18 301 0 q 163 136 188 60 q 118 288 133 215 q 98 428 103 361 q 97 553 93 494 q 108 660 100 611 q 172 868 128 775 q 247 950 197 921 q 356 991 296 979 q 485 1001 417 1003 q 617 989 553 999 q 735 965 681 979 q 825 940 790 951 q 859 927 853 933 q 863 914 865 921 q 844 910 860 907 q 807 915 828 913 q 744 922 788 918 q 643 929 700 926 q 524 932 586 932 q 406 925 461 932 q 310 901 351 918 q 256 857 269 885 q 189 640 208 757 q 177 531 181 590 q 180 406 174 472 q 204 268 186 340 q 256 121 222 196 q 365 60 293 82 q 438 44 396 50 q 533 38 479 38 q 655 44 588 38 q 804 68 722 51 q 840 81 826 75 q 861 81 854 88 z "},"D":{"ha":1003,"x_min":149,"x_max":918,"o":"m 149 0 l 149 979 q 449 982 322 990 q 661 958 575 974 q 831 917 760 942 q 887 688 868 790 q 912 502 906 585 q 913 357 918 419 q 897 247 908 294 q 814 82 872 138 q 747 42 789 58 q 653 15 704 25 q 544 -1 601 4 q 431 -7 486 -6 q 149 0 299 -11 m 232 72 q 447 67 347 64 q 534 72 490 68 q 617 82 578 75 q 687 101 656 89 q 738 129 718 113 q 814 282 790 183 q 828 380 824 324 q 828 508 833 436 q 806 668 822 579 q 756 865 789 757 q 608 889 690 878 q 442 908 538 899 q 232 919 347 917 l 232 72 z "},"E":{"ha":926,"x_min":200,"x_max":794,"o":"m 200 978 l 619 978 q 703 984 672 978 q 751 997 735 990 q 778 1017 771 1006 q 791 1016 789 1019 q 792 1006 793 1013 q 786 988 790 999 q 724 936 763 953 q 647 913 685 919 q 554 904 603 904 l 283 904 l 283 540 l 574 540 l 574 475 l 283 475 l 283 74 l 556 74 q 649 65 604 74 q 725 41 686 58 q 788 -10 764 24 q 793 -28 792 -21 q 792 -39 794 -35 q 779 -39 790 -43 q 753 -19 772 -28 q 705 -6 736 -12 q 621 0 674 0 l 200 0 l 200 978 z "},"F":{"ha":849,"x_min":139,"x_max":732,"o":"m 139 0 l 139 978 l 558 978 q 642 984 611 978 q 690 997 674 990 q 717 1017 710 1006 q 730 1016 728 1019 q 731 1006 732 1013 q 725 988 729 999 q 663 936 701 953 q 586 913 624 919 q 493 904 542 904 l 222 904 l 222 539 l 513 539 l 513 475 l 222 475 l 222 0 l 139 0 z "},"G":{"ha":1003,"x_min":28,"x_max":915,"o":"m 864 65 q 629 -8 735 13 q 441 -26 524 -28 q 298 -7 358 -25 q 197 33 238 11 q 135 76 157 56 q 111 104 114 96 q 58 271 76 192 q 34 420 40 350 q 31 551 28 490 q 43 661 35 611 q 111 868 63 778 q 186 950 138 921 q 295 991 235 979 q 424 1001 356 1003 q 556 989 492 999 q 674 965 619 979 q 764 940 729 951 q 798 927 792 933 q 801 914 804 921 q 783 910 799 907 q 746 915 767 913 q 683 922 728 918 q 582 929 639 926 q 463 932 525 932 q 345 925 400 932 q 249 901 290 918 q 194 857 208 885 q 129 643 149 760 q 117 535 121 593 q 120 411 114 476 q 144 274 126 346 q 196 128 163 203 q 328 69 246 88 q 408 58 363 61 q 510 57 453 54 q 636 72 567 60 q 788 110 706 85 q 813 249 804 192 q 825 344 822 307 q 829 417 829 389 l 629 417 l 629 475 l 915 475 q 905 326 913 400 q 888 194 897 253 q 872 100 879 136 q 864 65 865 64 z "},"H":{"ha":1081,"x_min":165,"x_max":947,"o":"m 165 978 q 217 985 200 978 q 242 1000 235 992 q 249 1022 250 1010 l 249 539 l 864 539 l 864 978 l 947 978 l 947 0 l 864 0 l 864 475 l 249 475 l 249 0 l 165 0 l 165 978 z "},"I":{"ha":464,"x_min":176,"x_max":260,"o":"m 176 978 q 226 984 208 978 q 250 999 243 990 q 260 1021 258 1008 l 260 0 l 176 0 l 176 978 z "},"J":{"ha":540,"x_min":92,"x_max":410,"o":"m 326 978 q 372 985 354 978 q 397 1000 389 992 q 410 1022 407 1010 l 410 269 q 398 154 410 204 q 367 67 386 104 q 324 1 349 29 q 274 -44 299 -26 q 139 -101 214 -89 q 101 -100 113 -106 q 94 -93 96 -97 q 96 -85 92 -89 q 106 -79 100 -82 q 121 -75 111 -76 q 190 -44 160 -64 q 239 -4 219 -25 q 278 47 263 19 q 307 108 297 71 q 321 182 317 146 q 326 271 326 225 l 326 978 z "},"K":{"ha":1003,"x_min":167,"x_max":844,"o":"m 167 978 q 214 985 197 978 q 239 1000 231 992 q 250 1022 249 1010 l 250 483 l 613 790 q 649 826 632 806 q 682 865 667 846 q 714 911 699 888 q 719 927 717 918 q 722 944 721 936 q 724 965 724 954 q 736 976 731 976 q 744 971 742 975 q 751 957 749 965 q 752 896 754 921 q 746 853 750 871 q 733 818 740 832 q 701 777 726 803 q 647 725 675 751 q 575 661 614 694 l 354 471 l 844 0 l 738 0 l 250 456 l 250 0 l 167 0 l 167 978 z "},"L":{"ha":840,"x_min":128,"x_max":725,"o":"m 710 119 q 722 120 719 124 q 724 110 725 117 q 718 92 722 103 q 655 33 694 53 q 578 7 615 14 q 485 0 533 -1 l 128 0 l 128 978 q 175 984 158 978 q 200 999 192 990 q 211 1021 210 1008 l 211 83 l 551 83 q 635 89 604 83 q 682 101 665 94 q 710 119 701 108 z "},"M":{"ha":1157,"x_min":138,"x_max":1013,"o":"m 138 978 l 250 978 l 565 204 q 595 274 575 228 q 641 378 615 319 q 695 505 667 438 q 753 639 724 572 q 900 978 819 796 l 1013 978 l 1013 0 l 929 0 l 929 857 l 676 281 q 631 194 654 228 q 588 142 607 161 q 540 108 564 118 q 515 98 526 101 q 497 93 504 94 q 481 93 488 92 q 458 96 463 93 q 456 103 454 99 q 464 114 457 108 q 490 123 482 117 q 503 135 499 129 q 507 149 507 140 l 221 857 l 221 0 l 138 0 l 138 978 z "},"N":{"ha":1003,"x_min":143,"x_max":857,"o":"m 833 -11 l 226 857 l 226 0 l 143 0 l 143 978 l 235 978 l 774 201 l 774 978 l 857 978 l 857 -11 l 833 -11 z "},"O":{"ha":1003,"x_min":39,"x_max":939,"o":"m 876 925 q 932 558 925 718 q 926 286 939 397 q 876 60 911 157 q 646 1 747 19 q 467 -20 544 -18 q 333 -11 389 -22 q 238 17 276 0 q 114 135 146 57 q 66 286 82 214 q 44 424 50 358 q 43 548 39 490 q 56 654 47 606 q 122 860 75 768 q 192 941 147 911 q 295 985 238 971 q 418 1000 353 999 q 549 994 483 1001 q 876 925 700 979 m 825 101 q 840 165 825 110 q 865 318 856 219 q 867 557 874 417 q 819 879 861 697 q 556 924 678 913 q 451 928 503 928 q 352 922 399 929 q 269 898 306 914 q 215 853 233 882 q 140 638 163 754 q 127 529 131 588 q 130 406 124 471 q 154 272 136 342 q 208 128 172 201 q 344 71 258 89 q 428 58 381 63 q 535 56 476 54 q 667 69 594 58 q 825 101 739 79 z "},"P":{"ha":849,"x_min":140,"x_max":746,"o":"m 140 0 l 140 979 q 408 978 300 986 q 586 960 517 971 q 717 925 667 944 q 739 821 732 868 q 746 735 746 774 q 741 665 746 696 q 729 611 736 635 q 681 522 713 556 q 631 494 661 506 q 566 475 601 482 q 491 465 531 468 q 414 461 451 461 q 224 468 325 458 l 224 0 l 140 0 m 224 533 q 339 528 279 529 q 453 529 390 526 q 579 543 515 532 q 643 601 619 558 q 660 645 653 619 q 669 705 668 671 q 665 783 671 739 q 642 885 658 828 q 499 901 571 896 q 363 910 436 907 q 224 910 290 913 l 224 533 z "},"Q":{"ha":1003,"x_min":39,"x_max":939,"o":"m 876 925 q 932 558 925 718 q 926 286 939 397 q 876 60 911 157 q 712 15 788 32 q 572 -10 636 -3 q 606 -79 576 -39 q 711 -151 635 -119 q 729 -162 722 -157 q 739 -189 744 -175 q 731 -196 736 -193 q 716 -197 725 -199 q 693 -189 707 -196 q 599 -150 643 -174 q 524 -99 561 -131 q 468 -19 486 -67 q 281 0 350 -24 q 174 54 211 24 q 114 135 129 90 q 66 286 82 214 q 44 424 50 358 q 43 548 39 490 q 56 654 47 606 q 122 860 75 768 q 192 941 147 911 q 295 985 238 971 q 418 1000 353 999 q 549 994 483 1001 q 876 925 700 979 m 825 101 q 840 165 825 110 q 865 318 856 219 q 867 557 874 417 q 819 879 861 697 q 556 924 678 913 q 451 928 503 928 q 352 922 399 929 q 269 898 306 914 q 215 853 233 882 q 140 638 163 754 q 127 529 131 588 q 130 406 124 471 q 154 272 136 342 q 208 128 172 201 q 344 71 258 89 q 428 58 381 63 q 535 56 476 54 q 667 69 594 58 q 825 101 739 79 m 572 0 l 572 -1 l 572 0 z "},"R":{"ha":926,"x_min":133,"x_max":832,"o":"m 640 111 l 639 111 q 693 61 669 79 q 733 33 717 43 q 767 18 753 22 q 790 12 779 13 q 811 10 801 11 q 826 8 821 10 q 832 -1 832 7 q 826 -13 832 -10 q 810 -18 819 -17 q 792 -19 801 -19 q 778 -19 783 -19 q 735 -16 754 -19 q 701 -8 717 -12 q 671 4 685 -3 q 640 22 657 8 q 606 51 622 35 q 574 83 589 68 q 551 107 560 99 l 282 465 l 217 468 l 217 0 l 133 0 l 133 978 q 221 981 179 981 q 300 981 263 981 q 506 973 426 981 q 631 956 585 965 q 711 932 685 944 q 736 817 729 868 q 743 725 743 765 q 735 640 743 675 q 718 582 728 604 q 693 540 707 557 q 639 499 675 514 q 558 476 603 483 q 465 467 514 468 q 372 465 415 465 l 640 111 m 217 533 q 251 531 232 532 q 291 529 268 529 q 342 529 314 529 q 451 532 392 529 q 572 546 511 535 q 617 576 597 554 q 648 628 633 596 q 663 718 663 661 q 656 792 663 751 q 635 885 650 833 q 521 897 579 892 q 408 907 469 903 q 283 911 346 911 q 249 911 267 911 q 217 910 232 911 l 217 533 z "},"S":{"ha":772,"x_min":75,"x_max":701,"o":"m 94 864 q 156 940 119 911 q 237 983 193 968 q 328 999 281 997 q 422 997 376 1001 q 650 940 529 986 q 660 915 671 919 q 629 913 650 910 q 567 928 604 917 q 375 941 449 947 q 260 918 301 935 q 188 868 211 899 q 165 763 165 813 q 174 675 165 713 q 203 592 183 629 q 386 544 304 567 q 526 506 468 522 q 647 469 594 486 q 689 343 676 400 q 701 241 701 286 q 692 161 701 196 q 669 101 683 126 q 576 13 636 42 q 473 -17 522 -10 q 380 -20 424 -24 q 299 -6 336 -17 q 231 21 261 6 q 103 115 158 57 q 86 144 89 132 q 87 161 83 156 q 98 167 90 167 q 113 160 106 167 q 153 122 129 139 q 178 106 165 114 q 290 57 239 72 q 383 39 342 42 q 458 44 425 36 q 515 65 490 53 q 607 157 574 96 q 614 251 618 206 q 601 333 610 297 q 576 411 592 375 q 405 453 485 431 q 264 494 325 475 q 132 536 193 517 q 85 658 96 599 q 78 763 75 717 q 94 864 81 817 z "},"T":{"ha":928,"x_min":43,"x_max":893,"o":"m 504 0 l 421 0 l 421 904 l 71 904 q 63 958 76 942 q 43 978 49 975 l 719 978 q 803 984 772 978 q 851 997 835 990 q 878 1017 871 1006 q 891 1016 889 1019 q 892 1006 893 1013 q 886 988 890 999 q 824 936 863 953 q 747 913 785 919 q 654 904 703 904 l 504 904 l 504 0 z "},"U":{"ha":1003,"x_min":135,"x_max":875,"o":"m 135 978 q 180 984 163 978 q 206 999 197 990 q 218 1021 215 1008 l 218 249 q 237 175 222 207 q 272 121 251 143 q 318 83 293 99 q 368 60 343 68 q 501 40 428 39 q 599 47 557 39 q 673 70 642 56 q 725 103 704 85 q 758 142 746 122 q 792 247 789 188 l 792 978 l 875 978 l 875 247 q 859 155 875 194 q 817 86 843 115 q 756 38 790 57 q 688 7 722 19 q 501 -24 606 -22 q 381 -12 433 -24 q 291 19 329 0 q 226 62 253 38 q 182 111 199 86 q 135 247 140 171 l 135 978 z "},"V":{"ha":1003,"x_min":107,"x_max":901,"o":"m 107 931 q 148 938 133 931 q 169 954 163 944 q 178 978 176 964 l 497 69 l 814 978 l 901 978 l 567 0 l 428 0 l 107 931 z "},"W":{"ha":1311,"x_min":67,"x_max":1247,"o":"m 67 931 q 109 938 94 931 q 131 954 124 944 q 139 978 138 964 l 458 69 l 606 476 q 554 632 578 564 q 508 765 531 700 q 463 853 489 819 q 414 907 438 888 q 357 940 386 929 q 328 964 329 956 q 338 975 328 972 q 372 978 349 979 q 467 924 426 956 q 533 864 507 893 q 585 794 564 829 q 594 772 589 785 q 609 733 600 760 q 634 660 618 707 q 677 537 650 614 q 743 346 704 460 q 839 69 782 232 l 1158 978 l 1247 978 l 910 0 l 768 0 l 653 343 l 528 0 l 389 0 l 67 931 z "},"X":{"ha":942,"x_min":76,"x_max":885,"o":"m 765 0 l 672 0 l 429 468 l 178 0 l 76 0 l 381 547 l 136 978 l 235 978 l 428 633 q 538 794 474 721 q 598 856 564 825 q 672 912 632 886 q 758 955 713 938 q 857 978 804 972 q 879 972 874 976 q 879 964 885 969 q 846 947 874 958 q 749 893 797 928 q 658 814 707 863 q 567 690 608 765 l 475 550 l 765 0 z "},"Y":{"ha":926,"x_min":111,"x_max":811,"o":"m 111 942 q 150 947 135 942 q 174 960 165 953 q 186 978 183 967 l 463 451 l 721 978 l 811 978 l 503 335 l 503 0 l 419 0 l 419 335 l 111 942 z "},"Z":{"ha":926,"x_min":85,"x_max":796,"o":"m 782 978 l 226 74 l 557 74 q 650 65 606 74 q 726 41 688 58 q 789 -10 765 24 q 794 -28 793 -21 q 794 -39 796 -35 q 781 -39 792 -43 q 754 -19 774 -28 q 706 -6 738 -12 q 622 0 675 0 l 85 0 l 632 894 l 160 894 q 158 939 163 922 q 144 964 153 956 q 122 978 135 974 l 782 978 z "},"[":{"ha":540,"x_min":188,"x_max":449,"o":"m 188 1013 l 274 1013 q 358 1019 326 1013 q 406 1032 389 1025 q 432 1051 425 1040 q 445 1051 443 1054 q 446 1040 447 1047 q 440 1022 444 1033 q 388 975 418 992 q 332 950 358 958 q 288 940 306 942 q 271 939 269 939 l 271 -258 q 286 -260 268 -258 q 331 -271 304 -262 q 389 -296 358 -279 q 442 -342 419 -312 q 447 -360 446 -353 q 447 -371 449 -367 q 433 -371 444 -375 q 407 -351 426 -360 q 359 -338 390 -344 q 275 -332 328 -332 l 188 -332 l 188 1013 z "},"\\":{"ha":540,"x_min":-147,"x_max":524,"o":"m 139 696 q 63 827 106 775 q -18 911 21 879 q -110 969 -64 947 q -142 990 -137 983 q -142 999 -147 996 q -118 1000 -136 1001 q 78 908 -1 979 q 224 710 157 836 q 358 401 290 583 q 524 -22 426 219 l 438 -22 l 139 696 z "},"]":{"ha":540,"x_min":89,"x_max":351,"o":"m 351 -332 l 264 -332 q 180 -338 211 -332 q 132 -351 149 -344 q 106 -371 113 -360 q 92 -371 94 -375 q 90 -360 89 -367 q 97 -342 92 -353 q 150 -296 119 -312 q 208 -271 181 -279 q 253 -260 235 -262 q 268 -258 271 -258 l 268 939 q 251 940 269 939 q 207 950 233 942 q 151 975 181 958 q 99 1022 121 992 q 92 1040 93 1033 q 93 1051 90 1047 q 107 1051 96 1054 q 133 1032 114 1040 q 181 1019 150 1025 q 265 1013 213 1013 l 351 1013 l 351 -332 z "},"^":{"ha":833,"x_min":182,"x_max":658,"o":"m 658 460 l 588 460 l 415 876 q 341 704 369 771 q 295 596 313 638 q 269 534 278 554 q 257 502 261 514 q 250 483 253 490 q 240 460 247 475 q 217 495 233 479 q 182 518 201 511 l 379 969 l 453 969 l 658 460 z "},"_":{"ha":694,"x_min":0,"x_max":693,"o":"m 693 -172 l 75 -172 l 38 -172 q 29 -128 38 -144 q 0 -97 21 -111 l 693 -97 l 693 -172 z "},"‘":{"ha":386,"x_min":79,"x_max":300,"o":"m 288 615 q 186 605 238 590 q 107 667 135 619 q 88 791 79 714 q 168 968 97 868 q 185 983 178 979 q 197 990 192 988 q 207 992 203 993 q 208 974 214 988 q 200 960 206 968 q 180 914 193 949 q 160 840 167 879 q 156 768 153 801 q 183 726 158 735 q 240 738 219 738 q 272 732 261 738 q 290 715 286 726 q 299 675 299 693 q 297 643 300 657 q 288 615 293 628 z "},"a":{"ha":694,"x_min":72,"x_max":550,"o":"m 550 0 l 465 0 l 465 21 q 369 -6 424 7 q 260 -19 314 -18 q 160 -5 206 -19 q 89 49 114 10 q 75 101 79 72 q 73 158 72 125 q 89 226 74 190 q 175 283 122 254 q 291 338 219 308 q 465 397 363 368 q 438 496 464 453 q 408 531 426 514 q 362 558 389 547 q 298 575 335 569 q 213 575 261 581 q 201 572 207 572 q 182 575 192 571 q 194 587 182 582 q 221 594 206 592 q 375 597 306 607 q 433 584 404 593 q 487 558 463 575 q 528 516 511 542 q 550 454 544 490 l 550 0 m 182 67 q 254 35 207 39 q 349 39 301 32 q 465 67 404 47 l 465 340 q 334 284 390 311 q 240 236 278 257 q 164 189 194 211 q 154 142 153 164 q 163 103 156 119 q 182 67 169 83 z "},"b":{"ha":772,"x_min":157,"x_max":672,"o":"m 157 986 q 201 994 176 989 q 240 1024 225 999 l 240 949 l 240 572 q 467 497 385 531 q 592 442 550 464 q 654 394 640 415 q 663 367 658 390 q 669 312 667 344 q 672 240 672 279 q 667 165 671 201 q 653 100 663 129 q 626 57 643 71 q 567 18 599 32 q 502 -2 535 4 q 438 -9 469 -8 q 376 -6 406 -10 q 240 29 308 3 l 240 0 l 157 0 l 157 986 m 240 75 q 351 50 296 56 q 455 55 399 46 q 560 104 511 64 q 583 176 575 138 q 592 254 590 210 q 579 349 593 299 q 536 379 572 358 q 435 428 504 397 q 240 508 367 458 l 240 75 z "},"c":{"ha":617,"x_min":63,"x_max":590,"o":"m 511 33 q 550 36 533 36 q 578 33 565 36 q 590 24 590 31 q 579 18 586 21 q 532 6 567 11 q 342 -15 429 -14 q 266 -12 304 -15 q 194 0 228 -10 q 133 27 160 10 q 90 72 106 44 q 76 136 82 101 q 67 204 71 165 q 63 288 63 243 l 63 299 q 67 382 63 343 q 76 450 71 421 q 90 514 82 485 q 131 558 106 540 q 189 585 157 575 q 256 598 221 594 q 328 601 292 601 q 506 581 410 600 q 535 574 524 578 q 553 568 546 571 l 564 563 q 551 551 564 554 q 524 549 539 549 q 485 551 507 549 q 308 549 372 560 q 213 521 244 538 q 164 475 175 501 q 147 378 149 422 q 144 299 144 335 q 148 209 144 254 q 167 111 151 164 q 218 61 178 81 q 322 33 253 43 q 511 33 390 22 z "},"d":{"ha":772,"x_min":101,"x_max":629,"o":"m 629 0 l 542 0 l 542 28 q 403 -8 472 0 q 341 -12 374 -12 q 275 -5 308 -11 q 210 16 242 1 q 149 56 178 31 q 122 99 132 69 q 108 164 113 128 q 102 238 103 200 q 104 309 101 276 q 112 365 107 342 q 122 393 117 388 q 185 440 136 414 q 310 496 226 464 q 542 571 393 528 l 542 944 l 542 1019 q 583 992 558 997 q 629 981 607 988 l 629 0 m 218 101 q 270 71 243 82 q 324 54 297 60 q 378 47 351 49 q 429 49 406 46 q 542 72 485 54 l 542 504 q 343 424 413 454 q 242 375 274 393 q 199 344 204 354 q 189 252 188 296 q 197 175 190 208 q 218 101 204 136 z "},"e":{"ha":617,"x_min":75,"x_max":549,"o":"m 406 10 l 419 13 q 433 10 433 15 q 428 0 433 7 q 406 -10 424 -7 q 250 -14 319 -24 q 192 -1 221 -10 q 138 26 163 8 q 97 69 114 43 q 75 132 81 94 l 75 564 q 279 599 186 590 q 358 602 318 603 q 432 595 399 601 q 490 574 465 589 q 526 535 515 560 q 544 481 539 508 q 547 424 549 456 q 526 357 544 393 q 446 306 496 332 q 333 253 403 282 q 160 197 263 225 q 188 93 163 138 q 216 57 199 74 q 260 28 233 40 q 322 10 286 15 q 406 10 357 4 m 160 244 q 291 299 235 272 q 385 347 347 326 q 461 394 429 372 q 471 442 472 419 q 463 481 469 464 q 442 518 456 500 q 366 549 414 544 q 272 546 318 553 q 160 518 218 538 l 160 244 z "},"f":{"ha":463,"x_min":29,"x_max":435,"o":"m 408 1022 q 431 1017 426 1022 q 432 1007 435 1013 q 419 993 429 1001 q 318 903 353 957 q 269 800 283 849 q 253 681 253 742 l 253 585 l 389 585 l 389 536 l 253 536 l 253 0 l 165 0 l 165 536 l 29 536 l 29 585 l 165 585 l 165 681 q 176 778 165 735 q 203 857 186 822 q 241 917 219 892 q 286 961 263 943 q 408 1022 340 1004 z "},"g":{"ha":694,"x_min":64,"x_max":642,"o":"m 624 -26 q 642 -141 642 -89 q 635 -232 642 -193 q 608 -314 626 -278 q 552 -357 588 -340 q 472 -382 517 -374 q 376 -391 426 -390 q 277 -386 326 -392 q 183 -369 228 -381 q 107 -342 139 -358 q 85 -326 94 -335 q 70 -310 76 -319 q 64 -289 64 -300 q 80 -288 67 -286 q 107 -294 93 -290 q 142 -308 122 -300 q 289 -339 219 -332 q 349 -343 318 -343 q 410 -339 381 -343 q 466 -325 440 -335 q 511 -297 492 -315 q 539 -258 528 -285 q 554 -196 549 -235 q 553 -92 560 -157 q 527 -85 549 -90 q 472 -73 506 -81 q 398 -57 439 -65 q 314 -40 357 -49 q 88 3 214 -21 l 88 97 q 119 174 94 144 q 179 218 144 204 q 152 238 161 229 q 139 253 143 246 q 133 265 133 260 q 110 367 113 318 q 113 457 107 417 q 133 544 118 503 q 167 578 143 565 q 221 596 190 590 q 288 602 251 601 q 360 600 324 603 q 546 572 444 594 q 568 430 565 494 q 565 318 571 365 q 546 218 560 263 q 368 195 440 197 q 256 200 296 193 q 191 167 211 189 q 164 124 171 146 q 161 68 157 99 q 216 56 183 63 q 285 41 249 49 q 362 25 322 33 q 439 10 401 17 q 624 -26 526 -8 m 206 506 q 197 492 206 510 q 184 442 189 474 q 182 370 179 411 q 206 288 185 329 q 254 261 219 269 q 338 252 283 253 q 483 269 392 251 q 503 318 497 285 q 508 393 508 346 q 493 515 508 440 q 364 539 422 533 q 314 542 339 542 q 267 539 289 542 q 229 528 246 536 q 206 506 213 519 z "},"h":{"ha":772,"x_min":143,"x_max":631,"o":"m 631 0 l 547 0 l 547 263 q 546 372 547 322 q 540 455 543 415 q 528 507 536 494 q 508 524 521 518 q 478 530 494 529 q 446 527 463 531 q 415 517 429 524 q 324 479 376 503 q 228 442 271 456 l 228 0 l 143 0 l 143 978 q 188 989 167 981 q 228 1024 210 997 l 228 469 q 274 493 249 479 q 325 520 300 507 q 374 545 350 533 q 415 564 397 557 q 454 581 429 572 q 519 592 479 589 q 583 573 561 592 q 617 531 606 554 q 631 469 629 504 l 631 0 z "},"i":{"ha":386,"x_min":142,"x_max":240,"o":"m 151 568 q 197 577 172 569 q 235 607 221 585 l 235 0 l 151 0 l 151 568 m 233 888 q 240 849 239 864 q 239 822 240 833 q 233 803 238 810 q 189 794 206 794 q 164 799 172 794 q 150 813 154 804 q 142 842 143 829 q 144 863 142 854 q 151 879 147 872 q 172 892 158 889 q 200 893 186 894 q 233 888 215 892 z "},"j":{"ha":386,"x_min":-174,"x_max":240,"o":"m 236 568 l 236 296 l 236 231 q 235 173 236 203 q 232 121 233 143 q 175 -112 221 -6 q 127 -203 156 -158 q 59 -285 99 -247 q -33 -351 19 -324 q -151 -389 -85 -379 q -168 -385 -174 -390 q -160 -379 -167 -382 q -55 -319 -100 -354 q 24 -245 -10 -285 q 80 -162 57 -206 q 117 -78 103 -119 q 151 124 150 19 l 151 296 l 151 568 q 186 576 169 571 q 215 588 200 581 q 236 606 229 594 l 236 568 m 233 888 q 240 849 239 864 q 239 822 240 833 q 233 803 238 810 q 189 794 206 794 q 164 799 172 794 q 150 813 154 804 q 142 842 143 829 q 144 863 142 854 q 151 879 147 872 q 172 892 158 889 q 200 893 186 894 q 233 888 215 892 z "},"k":{"ha":772,"x_min":142,"x_max":639,"o":"m 539 0 l 292 290 q 288 290 293 290 q 272 288 282 289 q 250 288 263 288 q 226 290 238 288 l 226 0 l 142 0 l 142 986 q 155 988 144 988 q 178 990 165 988 q 205 1000 192 993 q 226 1022 218 1007 l 226 365 q 283 367 254 365 q 339 381 311 369 q 463 442 414 413 q 540 497 511 472 q 593 553 575 525 q 604 547 604 558 q 603 535 604 542 q 579 477 596 503 q 547 432 563 451 q 507 393 528 410 q 449 353 479 372 q 376 318 418 333 l 639 0 l 539 0 z "},"l":{"ha":386,"x_min":150,"x_max":233,"o":"m 233 0 l 150 0 l 150 986 q 192 994 165 985 q 233 1025 219 1003 l 233 0 z "},"m":{"ha":1158,"x_min":135,"x_max":1026,"o":"m 1025 476 q 1026 435 1025 463 q 1026 370 1026 407 q 1026 292 1026 333 q 1026 210 1026 251 q 1025 0 1026 113 l 943 0 l 943 267 q 942 372 943 324 q 935 453 939 414 q 922 506 932 492 q 902 522 915 517 q 874 528 889 528 q 842 526 858 529 q 811 515 825 522 q 768 499 793 508 q 717 478 743 489 q 666 457 690 467 q 624 440 642 447 l 624 0 l 540 0 l 540 267 q 538 372 540 324 q 531 452 535 414 q 518 506 526 490 q 471 530 503 529 q 407 515 439 531 q 365 499 389 508 q 316 478 342 489 q 265 457 290 467 q 218 440 239 447 l 218 0 l 135 0 l 135 572 q 179 577 157 572 q 218 610 201 582 l 218 476 q 263 494 239 483 q 312 517 288 506 q 359 541 336 529 q 401 561 382 553 q 431 573 419 568 q 451 581 442 578 q 474 585 461 583 q 507 590 486 588 q 569 575 546 590 q 603 540 592 560 q 617 502 614 521 q 621 476 621 483 q 660 490 633 479 q 715 515 686 501 q 772 542 744 529 q 813 563 799 556 q 860 581 840 574 q 911 592 881 588 q 976 573 953 592 q 1010 532 999 554 q 1023 492 1021 510 q 1025 476 1025 474 z "},"n":{"ha":772,"x_min":146,"x_max":633,"o":"m 633 0 l 550 0 l 550 263 q 550 371 551 321 q 544 452 549 413 q 529 506 540 492 q 483 528 515 528 q 419 515 451 528 q 377 499 401 508 q 327 478 353 489 q 276 457 301 467 q 229 440 250 447 l 229 0 l 146 0 l 146 571 q 229 610 204 571 l 229 478 q 276 496 250 485 q 327 519 301 507 q 377 542 353 531 q 419 563 401 554 q 467 579 443 571 q 519 592 492 588 q 585 573 563 592 q 619 531 608 554 q 633 469 632 504 l 633 0 z "},"o":{"ha":694,"x_min":68,"x_max":625,"o":"m 592 560 q 622 342 618 440 q 618 172 625 243 q 592 22 611 89 q 441 -10 507 -1 q 324 -18 375 -19 q 237 -8 274 -17 q 175 13 200 0 q 96 94 115 42 q 69 242 71 169 q 75 374 68 315 q 104 504 83 442 q 144 558 117 538 q 208 588 171 578 q 287 600 244 599 q 372 599 329 601 q 592 560 472 592 m 535 78 q 551 169 546 113 q 553 296 556 218 q 535 486 551 374 q 371 519 446 510 q 307 525 339 524 q 248 522 275 526 q 200 508 221 518 q 171 479 179 497 q 151 354 157 419 q 151 232 147 299 q 181 103 156 165 q 242 63 197 76 q 349 51 279 51 q 535 78 418 50 z "},"p":{"ha":772,"x_min":146,"x_max":660,"o":"m 229 -376 l 146 -376 l 146 568 q 317 604 232 596 q 392 608 353 608 q 469 601 431 607 q 545 581 508 594 q 614 542 582 567 q 640 499 631 528 q 655 433 650 469 q 660 358 660 397 q 657 287 660 319 q 650 231 654 254 q 640 204 646 208 q 579 156 626 183 q 456 97 539 132 q 229 17 374 63 l 229 -376 m 229 82 q 424 162 356 131 q 525 211 493 193 q 567 242 561 232 q 576 335 578 290 q 568 413 575 379 q 549 485 561 451 q 444 534 500 524 q 340 542 389 544 q 229 521 285 538 l 229 82 z "},"q":{"ha":772,"x_min":153,"x_max":665,"o":"m 582 17 q 351 97 433 63 q 229 156 269 132 q 172 204 183 183 q 163 231 167 208 q 156 285 158 253 q 153 357 153 318 q 158 432 153 396 q 172 497 163 468 q 199 540 182 526 q 267 579 231 565 q 343 599 304 593 q 421 606 382 606 q 496 603 460 607 q 665 568 581 594 l 665 -375 l 582 -375 l 582 17 m 246 240 q 288 210 251 231 q 388 162 319 192 q 582 83 456 132 l 582 521 q 472 540 528 536 q 367 532 424 542 q 263 483 311 522 q 239 411 246 450 q 231 333 232 378 q 246 240 231 289 z "},"r":{"ha":514,"x_min":139,"x_max":418,"o":"m 390 514 q 413 491 408 500 q 415 478 418 482 q 401 473 411 474 q 382 476 392 472 q 324 493 350 490 q 277 493 297 496 q 243 485 257 490 q 222 476 229 479 l 222 0 l 139 0 l 139 569 q 184 576 160 569 q 222 597 208 582 l 222 550 q 263 564 243 557 q 297 578 283 571 l 307 578 q 345 553 321 571 q 390 514 369 535 z "},"s":{"ha":589,"x_min":90,"x_max":507,"o":"m 103 521 q 142 567 118 550 q 196 594 167 585 q 257 604 225 603 q 319 603 289 606 q 474 568 392 596 q 481 551 488 556 q 460 546 474 546 q 419 549 444 544 q 299 556 344 560 q 226 540 253 551 q 183 508 196 528 q 172 451 172 476 q 176 408 172 426 q 192 371 182 388 q 308 342 257 356 q 396 319 360 329 q 471 299 439 308 q 505 158 507 214 q 485 67 503 101 q 425 3 464 26 q 358 -15 390 -11 q 298 -18 326 -19 q 244 -10 269 -17 q 197 7 218 -3 q 107 65 147 29 q 99 99 90 86 q 117 106 108 113 q 129 92 122 99 q 143 82 136 86 q 158 72 150 76 q 288 29 238 32 q 367 40 338 26 q 418 90 401 56 q 428 152 429 124 q 419 201 426 181 q 399 244 413 226 q 290 271 340 257 q 204 296 240 285 q 126 322 161 310 q 97 396 103 360 q 92 460 90 432 q 103 521 93 493 z "},"t":{"ha":463,"x_min":57,"x_max":404,"o":"m 274 356 q 276 207 271 276 q 281 147 278 178 q 290 90 285 117 q 302 42 294 63 q 321 8 310 21 q 333 -8 329 -3 q 333 -15 336 -14 q 311 -10 329 -17 q 249 60 275 13 q 206 171 225 100 q 188 356 188 242 l 188 563 l 57 563 l 57 619 l 188 619 l 188 975 q 233 984 208 975 q 274 1013 258 993 l 274 619 l 404 619 l 404 563 l 274 563 l 274 356 z "},"u":{"ha":772,"x_min":143,"x_max":629,"o":"m 546 571 q 588 579 567 571 q 629 610 608 588 l 629 0 l 546 0 l 546 94 q 514 83 544 94 q 448 56 483 71 q 384 30 413 42 q 358 19 356 18 q 344 14 357 18 q 313 5 331 10 q 279 -4 296 0 q 256 -8 263 -8 q 190 5 213 -12 q 157 44 168 22 q 143 106 144 69 l 143 571 l 226 571 l 226 319 q 226 299 226 317 q 226 254 226 281 q 227 197 226 228 q 230 140 228 167 q 235 92 232 113 q 244 65 239 71 q 312 48 271 43 q 397 69 353 53 q 482 108 442 86 q 546 142 522 131 l 546 571 l 546 571 z "},"v":{"ha":694,"x_min":78,"x_max":610,"o":"m 381 0 l 299 0 l 78 504 q 117 530 99 511 q 143 569 136 549 q 153 543 150 551 q 162 522 157 535 q 176 487 167 510 q 204 417 185 464 q 256 296 224 371 q 339 104 288 221 l 531 569 l 610 569 l 381 0 z "},"w":{"ha":1003,"x_min":51,"x_max":949,"o":"m 949 571 l 725 0 l 650 0 q 582 156 613 85 q 556 216 569 186 q 531 272 543 246 q 511 318 519 299 q 500 346 503 338 l 350 0 l 265 0 l 51 496 q 83 514 72 503 q 100 537 94 525 q 106 558 106 549 q 107 571 107 568 q 118 548 108 569 q 143 493 128 526 q 176 418 158 460 q 214 333 194 376 q 313 103 258 231 l 444 431 q 422 467 433 449 q 397 501 410 485 q 372 528 385 517 q 350 543 360 539 q 333 553 339 547 q 331 559 329 556 q 350 563 332 563 q 436 524 392 556 q 520 439 474 496 q 613 281 567 382 l 688 103 l 875 571 l 949 571 z "},"x":{"ha":694,"x_min":94,"x_max":607,"o":"m 590 542 q 542 510 569 535 q 488 454 515 486 q 436 388 461 422 q 393 325 411 353 l 590 0 l 497 0 l 343 251 l 179 0 l 94 0 l 303 317 l 151 569 l 246 569 l 357 392 q 453 494 410 458 q 526 547 496 531 q 590 569 563 567 q 606 560 604 565 q 604 551 607 556 q 590 542 600 546 z "},"y":{"ha":694,"x_min":43,"x_max":647,"o":"m 415 1 q 376 -107 401 -47 q 308 -221 350 -167 q 203 -317 265 -275 q 56 -372 142 -358 q 49 -364 43 -372 q 56 -354 51 -360 q 174 -283 125 -326 q 255 -191 222 -240 q 306 -92 288 -142 q 333 0 324 -42 l 113 506 q 134 515 126 511 q 148 524 142 518 q 161 540 154 529 q 181 568 168 550 q 182 560 181 565 q 190 540 183 556 q 209 497 197 525 q 243 418 221 468 q 297 292 265 368 q 375 106 329 215 l 574 569 l 647 569 l 415 1 z "},"z":{"ha":617,"x_min":50,"x_max":571,"o":"m 571 569 l 215 81 l 325 81 q 435 60 392 74 q 504 31 478 46 q 553 -7 535 14 q 553 -26 556 -22 q 547 -26 551 -29 q 535 -17 542 -24 q 504 -1 519 -3 q 461 0 489 0 l 60 0 l 414 494 l 125 494 l 88 494 q 79 539 88 522 q 50 569 71 556 l 571 569 z "},"{":{"ha":542,"x_min":57,"x_max":454,"o":"m 439 -301 q 451 -317 449 -311 q 450 -326 454 -322 q 428 -331 446 -331 q 306 -269 360 -312 q 260 -226 282 -251 q 222 -166 239 -200 q 195 -88 206 -132 q 185 11 185 -44 l 185 165 q 182 232 185 203 q 167 282 179 261 q 128 317 154 303 q 57 340 103 331 q 128 364 103 350 q 167 399 154 378 q 182 449 179 419 q 185 515 185 478 l 185 669 q 195 767 185 724 q 222 846 206 811 q 260 906 239 881 q 306 950 282 932 q 428 1011 360 993 q 450 1006 446 1011 q 451 996 454 1001 q 439 982 449 990 q 338 892 372 946 q 289 789 303 838 q 272 669 272 731 l 272 539 q 269 463 272 496 q 257 405 267 429 q 228 365 247 381 q 176 340 208 349 q 228 316 208 332 q 257 276 247 300 q 269 220 267 253 q 272 144 272 188 l 272 11 q 289 -108 272 -51 q 338 -212 304 -158 q 439 -301 372 -265 z "},"|":{"ha":308,"x_min":111,"x_max":194,"o":"m 194 -346 l 111 -346 l 111 1006 q 153 1013 126 1004 q 194 1044 181 1022 l 194 -346 z "},"}":{"ha":540,"x_min":79,"x_max":476,"o":"m 94 -301 q 194 -212 160 -265 q 244 -108 229 -158 q 261 11 261 -51 l 261 144 q 264 220 261 188 q 276 276 267 253 q 306 316 286 300 q 357 340 325 332 q 306 365 325 349 q 276 405 286 381 q 264 463 267 429 q 261 539 261 496 l 261 669 q 244 789 261 731 q 225 840 238 814 q 194 892 213 867 q 152 940 176 917 q 94 982 128 964 q 82 996 85 990 q 83 1006 79 1001 q 106 1011 86 1011 q 226 950 172 993 q 271 906 249 932 q 310 846 293 881 q 338 767 328 811 q 349 669 349 724 l 349 515 q 351 449 349 478 q 367 399 354 419 q 405 364 379 378 q 476 340 431 350 q 405 317 431 331 q 367 282 379 303 q 351 232 354 261 q 349 165 349 203 l 349 11 q 338 -88 349 -44 q 310 -166 328 -132 q 271 -226 293 -200 q 226 -269 249 -251 q 106 -331 172 -312 q 83 -326 86 -331 q 82 -317 79 -322 q 94 -301 85 -311 z "},"~":{"ha":833,"x_min":97,"x_max":738,"o":"m 144 311 q 113 298 122 296 q 101 310 104 300 q 101 339 97 321 q 147 394 121 374 q 201 424 172 415 q 259 434 229 433 q 317 431 289 435 q 453 382 383 419 q 556 347 511 346 q 632 367 600 349 q 694 425 668 386 q 719 434 710 435 q 733 426 729 433 q 738 410 738 419 q 736 396 738 401 q 692 326 717 353 q 642 286 668 300 q 588 269 615 272 q 535 268 560 265 q 411 311 475 274 q 291 349 338 343 q 215 348 244 354 q 171 329 186 342 q 144 311 156 317 z "},"¡":{"ha":539,"x_min":207,"x_max":446,"o":"m 303 406 l 233 406 l 233 -136 q 240 -213 232 -179 q 260 -274 247 -247 q 291 -319 274 -300 q 326 -353 308 -339 q 425 -396 369 -385 q 442 -394 439 -396 q 443 -389 446 -392 q 432 -381 440 -385 q 351 -308 378 -349 q 313 -228 324 -267 q 303 -136 300 -183 l 303 406 m 324 508 q 282 501 301 503 q 247 503 265 500 q 219 519 229 507 q 210 540 213 528 q 208 567 207 551 q 217 606 208 583 q 235 622 221 617 q 267 628 246 628 q 324 617 288 628 q 331 592 328 607 q 324 508 335 561 z "},"ƒ":{"ha":772,"x_min":28,"x_max":622,"o":"m 596 1022 q 618 1017 614 1022 q 619 1007 622 1013 q 607 993 617 1001 q 506 903 540 957 q 457 800 471 849 q 440 681 440 742 l 440 585 l 576 585 l 576 536 l 440 536 q 440 347 440 419 q 440 228 440 274 q 438 160 439 183 q 436 121 438 138 q 378 -112 424 -6 q 330 -203 358 -158 q 262 -285 301 -247 q 169 -351 222 -324 q 50 -389 117 -379 q 33 -385 28 -390 q 42 -379 35 -382 q 147 -319 101 -354 q 225 -245 192 -285 q 281 -162 258 -206 q 318 -78 304 -119 q 353 124 351 19 l 353 536 l 217 536 l 217 585 l 353 585 l 353 681 q 363 778 353 735 q 390 857 374 822 q 428 917 407 892 q 474 961 450 943 q 596 1022 528 1004 z "},"§":{"ha":772,"x_min":106,"x_max":683,"o":"m 631 293 q 617 347 631 324 q 583 388 604 369 q 538 421 563 407 q 489 446 513 435 l 267 556 q 230 523 249 544 q 195 477 211 501 q 168 430 179 453 q 156 393 157 407 q 157 356 153 372 q 172 327 161 340 q 196 304 182 314 q 225 286 210 294 l 529 125 q 565 159 547 140 q 598 199 583 178 q 622 244 613 221 q 631 293 631 268 m 567 104 q 590 89 582 94 q 603 81 597 83 q 611 75 608 76 q 628 -49 626 6 q 624 -145 631 -104 q 601 -216 617 -186 q 568 -265 586 -246 q 461 -325 525 -312 q 325 -328 379 -343 q 239 -289 271 -312 q 179 -219 201 -261 q 175 -182 169 -186 q 192 -186 181 -178 q 222 -219 204 -196 q 322 -282 271 -272 q 413 -281 372 -292 q 503 -236 460 -268 q 523 -161 518 -201 q 526 -85 528 -121 q 519 -3 525 -43 q 343 92 414 47 q 228 168 272 136 q 146 239 176 206 q 106 352 106 297 q 128 451 107 407 q 177 527 149 496 q 222 571 206 558 q 186 590 199 585 q 171 597 178 594 q 153 714 156 663 q 159 805 151 765 q 182 873 167 844 q 215 922 197 901 q 322 986 258 969 q 453 994 400 1008 q 540 954 507 981 q 604 878 579 924 q 602 850 608 853 q 585 854 596 847 q 556 881 572 861 q 443 943 493 933 q 357 942 393 953 q 281 896 314 929 q 260 821 265 860 q 257 750 256 782 q 264 675 258 713 q 458 574 383 619 q 574 494 532 528 q 646 422 622 456 q 681 311 683 364 q 659 217 679 258 q 611 146 639 175 q 567 104 583 117 z "},"'":{"ha":386,"x_min":142,"x_max":281,"o":"m 213 983 q 256 906 240 943 q 276 835 271 868 q 278 772 281 801 q 268 717 275 742 q 211 610 251 658 q 193 601 197 600 q 188 608 189 603 q 189 625 186 614 q 216 742 218 685 q 199 842 214 799 q 167 913 183 886 q 150 939 150 939 q 142 966 142 950 q 157 993 142 982 q 188 1000 172 1003 q 213 983 203 997 z "},"“":{"ha":694,"x_min":99,"x_max":589,"o":"m 307 615 q 206 605 257 590 q 126 667 154 619 q 108 791 99 714 q 188 968 117 868 q 204 983 197 979 q 217 990 211 988 q 226 992 222 993 q 228 974 233 988 q 219 960 225 968 q 199 914 213 949 q 179 840 186 879 q 175 768 172 801 q 203 726 178 735 q 260 738 239 738 q 292 732 281 738 q 310 715 306 726 q 319 675 318 693 q 317 643 319 657 q 307 615 313 628 m 576 615 q 475 605 526 590 q 396 667 424 619 q 377 791 368 714 q 457 968 386 868 q 474 983 467 979 q 486 990 481 988 q 496 992 492 993 q 497 974 503 988 q 489 960 494 968 q 469 914 482 949 q 449 840 456 879 q 444 768 442 801 q 472 726 447 735 q 529 738 508 738 q 561 732 550 738 q 579 715 575 726 q 588 675 588 693 q 586 643 589 657 q 576 615 582 628 z "},"”":{"ha":694,"x_min":104,"x_max":594,"o":"m 386 988 q 488 998 436 1013 q 567 936 539 983 q 585 812 594 889 q 506 635 576 735 q 489 619 496 624 q 476 613 482 615 q 467 611 471 610 q 462 619 461 614 q 465 629 463 624 q 474 643 468 635 q 494 689 481 654 q 514 763 507 724 q 518 835 521 801 q 490 876 515 868 q 433 865 454 865 q 401 871 413 865 q 383 888 388 876 q 374 928 375 910 q 376 960 374 946 q 386 988 379 975 m 117 988 q 218 998 167 1013 q 297 936 269 983 q 316 812 325 889 q 236 635 307 735 q 219 619 226 624 q 207 613 213 615 q 197 611 201 610 q 192 619 192 614 q 196 629 193 624 q 204 643 199 635 q 224 689 211 654 q 244 763 238 724 q 249 835 251 801 q 221 876 246 868 q 164 865 185 865 q 132 871 143 865 q 114 888 118 876 q 105 928 106 910 q 107 960 104 946 q 117 988 110 975 z "},"‰":{"ha":1389,"x_min":111,"x_max":1276,"o":"m 254 -31 l 168 -31 q 310 265 247 131 q 428 508 374 399 q 535 701 483 617 q 641 846 586 786 q 759 942 696 906 q 901 992 822 978 q 925 990 919 993 q 924 981 931 988 q 890 961 918 975 q 793 903 840 939 q 705 819 751 871 q 618 688 658 767 l 254 -31 m 378 874 q 382 838 379 858 q 386 738 386 801 q 382 632 386 667 q 378 597 379 611 q 324 510 360 533 q 242 486 288 486 q 178 501 203 488 q 138 529 153 514 q 111 569 121 547 l 111 738 l 111 901 q 138 943 121 925 q 178 972 153 958 q 242 986 203 986 q 324 963 288 986 q 378 874 360 940 m 325 617 q 335 735 336 675 q 325 856 333 796 q 311 904 321 883 q 286 936 303 922 q 242 949 269 950 q 196 941 214 949 q 167 897 178 933 l 167 579 q 196 533 178 543 q 242 522 214 522 q 286 535 269 519 q 311 568 303 550 q 325 617 321 589 m 832 368 q 836 332 833 353 q 840 232 840 296 q 836 126 840 161 q 832 92 833 106 q 778 4 814 28 q 696 -19 742 -19 q 632 -5 657 -18 q 592 24 607 8 q 565 64 575 42 l 565 232 l 565 396 q 592 438 575 419 q 632 467 607 453 q 696 481 657 481 q 778 458 742 481 q 832 368 814 435 m 779 111 q 790 230 790 168 q 779 350 789 292 q 765 399 775 378 q 740 431 757 417 q 696 443 724 444 q 650 435 668 443 q 621 392 632 428 l 621 74 q 650 27 632 38 q 696 17 668 17 q 740 29 724 14 q 765 63 757 44 q 779 111 775 83 m 1268 368 q 1272 332 1269 353 q 1276 232 1276 296 q 1272 126 1276 161 q 1268 92 1269 106 q 1214 4 1250 28 q 1132 -19 1178 -19 q 1068 -5 1093 -18 q 1028 24 1043 8 q 1001 64 1011 42 l 1001 232 l 1001 396 q 1028 438 1011 419 q 1068 467 1043 453 q 1132 481 1093 481 q 1214 458 1178 481 q 1268 368 1250 435 m 1215 111 q 1226 230 1226 168 q 1215 350 1225 292 q 1201 399 1211 378 q 1176 431 1193 417 q 1132 443 1160 444 q 1086 435 1104 443 q 1057 392 1068 428 l 1057 74 q 1086 27 1068 38 q 1132 17 1104 17 q 1176 29 1160 14 q 1201 63 1193 44 q 1215 111 1211 83 z "},"¿":{"ha":694,"x_min":132,"x_max":550,"o":"m 404 -379 q 285 -378 336 -392 q 201 -340 235 -364 q 133 -276 161 -315 q 132 -133 132 -187 q 133 -46 132 -78 q 135 7 133 -10 q 324 158 264 89 q 406 276 385 226 q 418 382 431 335 q 423 407 418 403 q 435 407 428 411 q 453 389 442 401 q 460 305 464 344 q 444 229 457 265 q 410 162 431 193 q 367 104 389 131 q 236 -6 313 43 q 233 -104 233 -58 q 233 -183 232 -150 q 236 -256 235 -224 q 267 -294 246 -279 q 303 -312 288 -308 q 406 -320 364 -332 q 476 -287 449 -308 q 528 -225 508 -262 q 542 -216 536 -212 q 549 -233 549 -219 q 544 -268 550 -247 q 520 -310 538 -289 q 475 -351 503 -332 q 404 -379 447 -369 m 378 494 q 369 547 371 526 q 371 583 368 568 q 378 611 374 599 q 439 623 417 622 q 474 618 461 624 q 493 600 488 613 q 502 558 501 576 q 500 529 503 540 q 490 507 496 515 q 461 490 479 493 q 424 488 443 486 q 378 494 401 489 z "},"`":{"ha":386,"x_min":21,"x_max":300,"o":"m 300 717 l 267 717 l 21 876 q 40 914 36 899 q 36 951 43 929 l 300 717 z "},"´":{"ha":386,"x_min":89,"x_max":368,"o":"m 353 951 q 349 914 346 929 q 368 876 353 899 l 122 717 l 89 717 l 353 951 z "},"Æ":{"ha":1389,"x_min":79,"x_max":1311,"o":"m 639 978 l 1136 978 q 1220 984 1189 978 q 1268 997 1251 990 q 1294 1017 1288 1006 q 1308 1016 1306 1019 q 1308 1006 1310 1013 q 1303 988 1307 999 q 1240 936 1279 953 q 1164 913 1201 919 q 1071 904 1119 904 l 800 904 l 800 540 l 1090 540 l 1090 475 l 800 475 l 800 74 l 1072 74 q 1165 65 1121 74 q 1242 41 1203 58 q 1304 -10 1281 24 q 1310 -28 1308 -21 q 1309 -39 1311 -35 q 1296 -39 1307 -43 q 1269 -19 1289 -28 q 1222 -6 1253 -12 q 1138 0 1190 0 l 661 0 l 661 286 l 351 286 l 192 0 l 79 0 l 639 978 m 661 357 l 661 835 l 388 357 l 661 357 z "},"Ø":{"ha":1003,"x_min":53,"x_max":953,"o":"m 890 924 q 946 556 939 717 q 940 285 953 396 q 890 58 925 156 q 590 -11 715 4 q 381 -17 465 -26 q 245 17 296 -8 q 168 71 194 43 l 85 -29 l 85 -28 l 65 -28 l 157 82 q 142 102 147 93 q 133 118 136 111 q 128 133 129 126 q 80 285 96 213 q 58 423 64 357 q 57 547 53 489 q 69 653 61 604 q 136 858 89 767 q 224 951 165 919 q 355 992 282 982 q 508 997 428 1003 q 659 979 588 992 q 788 952 731 967 q 871 929 844 938 l 917 985 q 927 983 924 985 q 942 989 931 982 l 888 925 q 890 924 889 924 m 229 851 q 156 643 178 756 q 141 538 146 594 q 142 419 136 482 q 164 287 147 356 q 213 147 181 218 l 828 879 q 771 891 814 882 q 669 909 728 900 q 544 924 611 918 q 415 925 476 929 q 303 904 353 921 q 229 851 253 888 m 839 100 q 853 163 839 108 q 878 313 868 217 q 882 548 888 410 q 836 864 876 686 l 219 132 q 222 126 222 126 q 358 69 272 88 q 442 57 394 61 q 549 55 490 53 q 681 67 608 57 q 839 100 753 78 z "},"æ":{"ha":1003,"x_min":35,"x_max":942,"o":"m 813 13 q 826 10 826 15 q 822 0 826 7 q 799 -10 817 -7 q 686 -17 742 -18 q 588 -6 639 -15 q 497 33 536 4 q 363 -2 432 13 q 232 -18 293 -17 q 123 -4 171 -19 q 51 49 75 11 q 38 101 42 72 q 35 158 35 125 q 51 226 36 190 q 138 283 85 254 q 253 338 182 308 q 428 397 325 368 q 400 496 426 453 q 370 531 389 514 q 324 558 351 547 q 260 575 297 569 q 175 575 224 581 q 164 572 169 572 q 144 575 154 571 q 156 587 144 582 q 183 594 168 592 q 276 601 231 601 q 361 594 317 601 q 442 564 406 586 q 479 572 446 565 q 561 587 513 579 q 667 599 610 594 q 776 601 724 604 q 867 582 828 597 q 919 535 906 567 q 938 481 932 508 q 940 424 942 456 q 919 357 938 393 q 839 306 889 332 q 726 253 796 282 q 553 197 656 225 q 581 93 556 138 q 609 57 592 74 q 653 28 626 40 q 715 10 679 15 q 799 10 750 4 l 813 13 m 144 67 q 217 35 169 39 q 311 39 264 32 q 428 67 367 47 l 428 340 q 297 284 353 311 q 203 236 240 257 q 126 189 157 211 q 117 142 115 164 q 125 103 118 119 q 144 67 132 83 m 553 244 q 684 299 628 272 q 778 347 740 326 q 854 394 822 372 q 864 442 865 419 q 856 481 863 464 q 835 518 849 500 q 759 549 807 544 q 665 546 711 553 q 553 518 611 538 l 553 244 z "},"œ":{"ha":1081,"x_min":51,"x_max":1021,"o":"m 878 10 l 892 13 q 906 10 906 15 q 901 0 906 7 q 878 -10 896 -7 q 761 -17 817 -18 q 663 -5 713 -15 q 582 35 614 6 q 431 -5 497 7 q 313 -17 364 -17 q 225 -10 263 -18 q 161 10 188 -3 q 79 94 100 39 q 53 242 54 169 q 58 374 51 315 q 88 504 67 442 q 143 569 103 547 q 235 599 183 590 q 342 603 286 607 q 447 593 399 600 q 530 578 496 586 q 571 568 564 571 q 619 578 585 571 q 696 592 653 586 q 787 602 739 599 q 878 601 835 606 q 953 581 921 596 q 999 535 986 565 q 1017 481 1011 508 q 1019 424 1021 456 q 999 357 1017 393 q 918 306 968 332 q 805 253 875 282 q 632 197 735 225 q 660 93 635 138 q 688 57 671 74 q 732 28 706 40 q 794 10 758 15 q 878 10 829 4 m 518 78 q 535 169 529 113 q 537 296 539 218 q 518 486 535 374 q 354 519 429 510 q 290 525 322 524 q 231 522 258 526 q 183 508 204 518 q 154 479 163 497 q 135 354 140 419 q 135 232 131 299 q 164 103 139 165 q 225 63 181 76 q 332 51 263 51 q 518 78 401 50 m 632 244 q 763 299 707 272 q 857 347 819 326 q 933 394 901 372 q 943 442 944 419 q 935 481 942 464 q 914 518 928 500 q 838 549 886 544 q 744 546 790 553 q 632 518 690 538 l 632 244 z "},"™":{"ha":1375,"x_min":169,"x_max":1203,"o":"m 447 417 l 371 417 l 371 922 l 185 922 q 181 959 189 944 q 169 976 172 974 l 557 976 q 603 980 586 976 q 631 988 621 983 q 646 999 642 993 q 653 998 651 1001 q 654 992 656 994 q 650 982 653 986 q 615 951 636 963 q 572 933 593 940 q 519 922 547 926 l 447 922 l 447 417 m 699 978 l 783 978 l 944 546 q 961 586 950 560 q 986 645 972 613 q 1015 715 1000 678 q 1046 790 1031 753 q 1124 978 1082 876 l 1203 978 l 1203 417 l 1140 417 l 1140 894 l 1010 576 q 983 526 997 546 q 957 496 968 507 q 931 476 943 482 q 906 468 914 468 q 896 468 900 467 q 881 474 878 468 q 886 481 882 476 q 901 486 897 483 q 908 492 906 489 q 911 500 911 496 l 761 894 l 761 417 l 699 417 l 699 978 z "},"±":{"ha":833,"x_min":65,"x_max":768,"o":"m 375 703 l 458 703 l 458 461 l 768 461 l 768 378 l 458 378 l 458 136 l 375 136 l 375 378 l 65 378 l 65 461 l 375 461 l 375 703 m 768 0 l 103 0 q 94 44 103 28 q 65 75 86 61 l 768 75 l 768 0 z "},"÷":{"ha":833,"x_min":64,"x_max":768,"o":"m 768 314 l 139 314 l 101 314 q 93 358 101 342 q 64 389 85 375 l 768 389 l 768 314 m 488 138 q 499 72 497 99 q 497 28 500 46 q 488 -6 494 7 q 413 -21 440 -21 q 371 -14 386 -21 q 347 8 354 -7 q 335 58 336 36 q 338 93 335 79 q 350 121 342 108 q 386 142 364 138 q 432 146 408 147 q 488 138 457 144 m 488 714 q 499 649 497 675 q 497 604 500 622 q 488 571 494 583 q 413 556 440 556 q 371 563 386 556 q 347 585 354 569 q 335 634 336 613 q 338 669 335 656 q 350 697 342 685 q 386 719 364 714 q 432 722 408 724 q 488 714 457 721 z "},"®":{"ha":1111,"x_min":44,"x_max":1067,"o":"m 556 1000 q 755 960 661 1000 q 917 850 849 919 q 1026 688 986 781 q 1067 489 1067 594 q 1026 290 1067 383 q 917 128 986 197 q 755 18 849 58 q 556 -22 661 -22 q 357 18 450 -22 q 194 128 264 58 q 85 290 125 197 q 44 489 44 383 q 85 688 44 594 q 194 850 125 781 q 357 960 264 919 q 556 1000 450 1000 m 443 517 q 461 515 451 515 l 506 515 q 563 517 532 515 q 622 524 594 518 q 646 539 635 528 q 662 565 654 549 q 669 610 669 582 q 666 649 669 628 q 654 694 663 669 q 597 700 626 697 q 540 705 572 703 q 476 707 508 707 l 443 707 l 443 517 m 657 278 q 684 252 672 261 q 704 238 696 243 q 721 231 714 232 q 746 226 736 225 q 756 221 756 228 q 747 215 756 217 q 728 213 739 214 q 708 213 718 213 q 696 213 699 213 q 674 214 683 213 q 657 218 664 215 q 642 224 649 221 q 626 232 635 225 q 608 247 617 239 q 593 264 600 256 q 582 276 586 272 l 444 458 l 443 460 l 443 222 l 368 222 l 368 767 q 397 767 381 767 q 429 768 413 768 q 461 768 446 768 q 486 768 476 768 q 592 765 549 768 q 664 757 636 761 q 717 746 696 751 q 725 708 721 729 q 732 664 729 686 q 736 622 735 642 q 738 592 738 603 q 733 548 738 567 q 721 518 728 529 q 706 494 714 503 q 673 474 694 482 q 626 463 651 467 q 572 459 600 460 q 522 458 544 458 l 657 278 m 556 933 q 386 897 465 933 q 247 801 307 861 q 153 659 188 740 q 119 489 119 578 q 153 318 119 399 q 247 176 188 238 q 386 80 307 115 q 556 44 465 44 q 725 80 646 44 q 864 176 804 115 q 958 318 924 238 q 992 489 992 399 q 958 659 992 578 q 864 801 924 740 q 725 897 804 861 q 556 933 646 933 z "},"©":{"ha":1111,"x_min":44,"x_max":1067,"o":"m 760 276 q 759 265 764 274 q 736 247 754 256 q 625 220 674 228 q 539 213 576 213 q 474 219 501 213 q 429 236 447 226 q 371 301 385 260 q 334 460 338 388 q 340 586 331 533 q 376 700 351 649 q 445 760 397 744 q 548 774 493 775 q 654 762 603 774 q 735 740 706 750 q 753 732 750 738 q 754 722 756 726 q 744 719 753 718 q 725 721 736 719 q 669 726 710 722 q 584 731 629 731 q 500 722 539 731 q 450 690 461 713 q 414 581 425 640 q 409 459 404 529 q 450 306 414 389 q 497 271 463 283 q 580 258 526 260 q 724 275 633 256 q 760 276 749 285 m 556 1000 q 755 960 661 1000 q 917 850 849 919 q 1026 688 986 781 q 1067 489 1067 594 q 1026 290 1067 383 q 917 128 986 197 q 755 18 849 58 q 556 -22 661 -22 q 357 18 450 -22 q 194 128 264 58 q 85 290 125 197 q 44 489 44 383 q 85 688 44 594 q 194 850 125 781 q 357 960 264 919 q 556 1000 450 1000 m 556 933 q 386 897 465 933 q 247 801 307 861 q 153 659 188 740 q 119 489 119 578 q 153 318 119 399 q 247 176 188 238 q 386 80 307 115 q 556 44 465 44 q 725 80 646 44 q 864 176 804 115 q 958 318 924 238 q 992 489 992 399 q 958 659 992 578 q 864 801 924 740 q 725 897 804 861 q 556 933 646 933 z "},"Á":{"ha":926,"x_min":76,"x_max":856,"o":"m 444 1000 l 460 1000 l 444 1000 m 556 1272 q 583 1297 571 1288 q 615 1307 596 1307 q 645 1294 631 1307 q 660 1260 660 1281 q 646 1227 660 1239 q 604 1197 632 1215 l 403 1072 l 354 1072 l 556 1272 m 824 26 q 849 9 843 15 q 856 -1 856 3 q 851 -7 856 -6 q 844 -8 847 -8 q 826 -3 835 -7 q 811 3 818 0 q 796 10 803 7 q 723 69 756 31 q 667 146 690 108 q 615 239 639 190 l 596 286 l 257 286 l 163 0 l 76 0 l 410 1000 l 449 1000 l 696 267 q 746 138 724 185 q 786 65 768 90 q 824 26 806 36 m 578 357 l 429 811 l 278 357 l 578 357 z "},"Â":{"ha":926,"x_min":76,"x_max":856,"o":"m 425 1307 l 503 1307 l 672 1072 l 626 1072 l 464 1219 l 301 1072 l 256 1072 l 425 1307 m 824 26 q 849 9 843 15 q 856 -1 856 3 q 851 -7 856 -6 q 844 -8 847 -8 q 826 -3 835 -7 q 811 3 818 0 q 796 10 803 7 q 723 69 756 31 q 667 146 690 108 q 615 239 639 190 l 596 286 l 257 286 l 163 0 l 76 0 l 410 1000 l 449 1000 l 696 267 q 746 138 724 185 q 786 65 768 90 q 824 26 806 36 m 578 357 l 429 811 l 278 357 l 578 357 z "},"Ä":{"ha":926,"x_min":76,"x_max":856,"o":"m 594 1225 q 638 1206 619 1225 q 657 1163 657 1188 q 638 1119 657 1138 q 594 1100 619 1100 q 550 1119 568 1100 q 532 1163 532 1138 q 550 1206 532 1188 q 594 1225 568 1225 m 333 1225 q 377 1206 358 1225 q 396 1163 396 1188 q 377 1119 396 1138 q 333 1100 358 1100 q 289 1119 307 1100 q 271 1163 271 1138 q 289 1206 271 1188 q 333 1225 307 1225 m 824 26 q 849 9 843 15 q 856 -1 856 3 q 851 -7 856 -6 q 844 -8 847 -8 q 826 -3 835 -7 q 811 3 818 0 q 796 10 803 7 q 723 69 756 31 q 667 146 690 108 q 615 239 639 190 l 596 286 l 257 286 l 163 0 l 76 0 l 410 1000 l 449 1000 l 696 267 q 746 138 724 185 q 786 65 768 90 q 824 26 806 36 m 578 357 l 429 811 l 278 357 l 578 357 z "},"À":{"ha":926,"x_min":76,"x_max":856,"o":"m 324 1197 q 282 1227 296 1215 q 268 1260 268 1239 q 283 1294 268 1281 q 313 1307 297 1307 q 344 1297 332 1307 q 372 1272 357 1288 l 574 1072 l 525 1072 l 324 1197 m 824 26 q 849 9 843 15 q 856 -1 856 3 q 851 -7 856 -6 q 844 -8 847 -8 q 826 -3 835 -7 q 811 3 818 0 q 796 10 803 7 q 723 69 756 31 q 667 146 690 108 q 615 239 639 190 l 596 286 l 257 286 l 163 0 l 76 0 l 410 1000 l 449 1000 l 696 267 q 746 138 724 185 q 786 65 768 90 q 824 26 806 36 m 578 357 l 429 811 l 278 357 l 578 357 z "},"Å":{"ha":926,"x_min":76,"x_max":856,"o":"m 454 1265 q 543 1228 507 1265 q 579 1140 579 1192 q 543 1052 579 1089 q 454 1015 507 1015 q 365 1052 401 1015 q 329 1140 329 1089 q 365 1228 329 1192 q 454 1265 401 1265 m 454 1224 q 395 1199 419 1224 q 371 1140 371 1174 q 395 1082 371 1107 q 454 1057 419 1057 q 513 1082 489 1057 q 538 1140 538 1107 q 513 1199 538 1174 q 454 1224 489 1224 m 824 26 q 849 9 843 15 q 856 -1 856 3 q 851 -7 856 -6 q 844 -8 847 -8 q 826 -3 835 -7 q 811 3 818 0 q 796 10 803 7 q 723 69 756 31 q 667 146 690 108 q 615 239 639 190 l 596 286 l 257 286 l 163 0 l 76 0 l 410 1000 l 449 1000 l 696 267 q 746 138 724 185 q 786 65 768 90 q 824 26 806 36 m 578 357 l 429 811 l 278 357 l 578 357 z "},"Ã":{"ha":926,"x_min":76,"x_max":856,"o":"m 690 1247 q 669 1194 682 1219 q 639 1149 657 1169 q 596 1117 621 1129 q 540 1106 571 1106 q 487 1115 513 1106 q 438 1139 461 1125 q 395 1161 418 1150 q 350 1172 372 1172 q 301 1153 321 1172 q 274 1106 282 1133 l 238 1106 q 258 1158 246 1132 q 289 1203 271 1183 q 331 1235 307 1224 q 388 1247 356 1247 q 441 1238 415 1247 q 490 1214 467 1228 q 533 1192 510 1203 q 578 1181 556 1181 q 626 1200 607 1181 q 654 1247 646 1219 l 690 1247 m 824 26 q 849 9 843 15 q 856 -1 856 3 q 851 -7 856 -6 q 844 -8 847 -8 q 826 -3 835 -7 q 811 3 818 0 q 796 10 803 7 q 723 69 756 31 q 667 146 690 108 q 615 239 639 190 l 596 286 l 257 286 l 163 0 l 76 0 l 410 1000 l 449 1000 l 696 267 q 746 138 724 185 q 786 65 768 90 q 824 26 806 36 m 578 357 l 429 811 l 278 357 l 578 357 z "},"Ç":{"ha":926,"x_min":79,"x_max":854,"o":"m 847 81 q 851 65 854 74 q 815 40 847 56 q 624 -6 708 8 q 474 -22 540 -21 q 458 -40 463 -31 q 451 -60 453 -50 q 453 -81 450 -71 q 506 -94 475 -86 q 564 -110 536 -103 q 629 -129 596 -119 q 638 -187 638 -161 q 633 -232 638 -212 q 621 -274 628 -256 q 576 -302 606 -293 q 511 -312 546 -311 q 442 -306 476 -312 q 383 -287 408 -300 q 372 -279 378 -285 q 365 -270 368 -275 q 361 -260 361 -265 q 382 -264 364 -258 q 400 -271 389 -267 q 460 -286 431 -282 q 512 -286 485 -289 q 558 -264 539 -283 q 571 -244 565 -257 q 578 -217 575 -233 q 579 -175 581 -200 q 547 -166 576 -174 q 486 -150 518 -158 q 400 -128 447 -140 l 400 -67 q 410 -43 401 -56 q 426 -22 419 -31 q 279 7 333 -18 q 196 61 225 32 q 149 136 161 94 q 104 288 119 215 q 84 428 89 361 q 83 553 79 494 q 94 660 86 611 q 158 868 114 775 q 233 950 183 921 q 342 991 282 979 q 471 1001 403 1003 q 603 989 539 999 q 722 965 667 979 q 811 940 776 951 q 845 927 839 933 q 849 914 851 921 q 830 910 846 907 q 793 915 814 913 q 730 922 774 917 q 629 929 686 926 q 510 932 572 932 q 392 925 447 932 q 297 901 338 918 q 242 857 256 885 q 175 640 194 757 q 163 531 167 590 q 166 406 160 472 q 190 268 172 340 q 242 121 208 196 q 351 60 279 82 q 424 44 382 50 q 519 38 465 38 q 641 44 574 38 q 790 68 708 51 q 826 81 813 75 q 847 81 840 88 z "},"É":{"ha":926,"x_min":172,"x_max":767,"o":"m 556 1272 q 583 1297 571 1288 q 615 1307 596 1307 q 645 1294 631 1307 q 660 1260 660 1281 q 646 1227 660 1239 q 604 1197 632 1215 l 403 1072 l 354 1072 l 556 1272 m 172 978 l 592 978 q 676 984 644 978 q 724 997 707 990 q 750 1017 743 1006 q 763 1016 761 1019 q 764 1006 765 1013 q 758 988 763 999 q 696 936 735 953 q 619 913 657 919 q 526 904 575 904 l 256 904 l 256 540 l 546 540 l 546 475 l 256 475 l 256 74 l 528 74 q 621 65 576 74 q 697 41 658 58 q 760 -10 736 24 q 765 -28 764 -21 q 765 -39 767 -35 q 751 -39 763 -43 q 725 -19 744 -28 q 677 -6 708 -12 q 593 0 646 0 l 172 0 l 172 978 z "},"Ê":{"ha":926,"x_min":172,"x_max":767,"o":"m 425 1307 l 503 1307 l 464 1219 l 425 1307 m 172 978 l 592 978 q 676 984 644 978 q 724 997 707 990 q 750 1017 743 1006 q 763 1016 761 1019 q 764 1006 765 1013 q 758 988 763 999 q 696 936 735 953 q 619 913 657 919 q 526 904 575 904 l 256 904 l 256 540 l 546 540 l 546 475 l 256 475 l 256 74 l 528 74 q 621 65 576 74 q 697 41 658 58 q 760 -10 736 24 q 765 -28 764 -21 q 765 -39 767 -35 q 751 -39 763 -43 q 725 -19 744 -28 q 677 -6 708 -12 q 593 0 646 0 l 172 0 l 172 978 z "},"Ë":{"ha":926,"x_min":172,"x_max":767,"o":"m 594 1225 q 638 1206 619 1225 q 657 1163 657 1188 q 638 1119 657 1138 q 594 1100 619 1100 q 550 1119 568 1100 q 532 1163 532 1138 q 550 1206 532 1188 q 594 1225 568 1225 m 333 1225 q 377 1206 358 1225 q 396 1163 396 1188 q 377 1119 396 1138 q 333 1100 358 1100 q 289 1119 307 1100 q 271 1163 271 1138 q 289 1206 271 1188 q 333 1225 307 1225 m 172 978 l 592 978 q 676 984 644 978 q 724 997 707 990 q 750 1017 743 1006 q 763 1016 761 1019 q 764 1006 765 1013 q 758 988 763 999 q 696 936 735 953 q 619 913 657 919 q 526 904 575 904 l 256 904 l 256 540 l 546 540 l 546 475 l 256 475 l 256 74 l 528 74 q 621 65 576 74 q 697 41 658 58 q 760 -10 736 24 q 765 -28 764 -21 q 765 -39 767 -35 q 751 -39 763 -43 q 725 -19 744 -28 q 677 -6 708 -12 q 593 0 646 0 l 172 0 l 172 978 z "},"È":{"ha":926,"x_min":172,"x_max":767,"o":"m 172 978 l 592 978 q 676 984 644 978 q 724 997 707 990 q 750 1017 743 1006 q 763 1016 761 1019 q 764 1006 765 1013 q 758 988 763 999 q 696 936 735 953 q 619 913 657 919 q 526 904 575 904 l 256 904 l 256 540 l 546 540 l 546 475 l 256 475 l 256 74 l 528 74 q 621 65 576 74 q 697 41 658 58 q 760 -10 736 24 q 765 -28 764 -21 q 765 -39 767 -35 q 751 -39 763 -43 q 725 -19 744 -28 q 677 -6 708 -12 q 593 0 646 0 l 172 0 l 172 978 m 567 1072 l 533 1072 l 288 1232 q 306 1269 303 1254 q 303 1307 310 1285 l 567 1072 z "},"Í":{"ha":464,"x_min":122,"x_max":428,"o":"m 324 1272 q 351 1297 339 1288 q 383 1307 364 1307 q 413 1294 399 1307 q 428 1260 428 1281 q 414 1227 428 1239 q 372 1197 400 1215 l 171 1072 l 122 1072 l 324 1272 m 190 978 q 240 984 222 978 q 264 999 257 990 q 274 1021 272 1008 l 274 0 l 190 0 l 190 978 z "},"Î":{"ha":464,"x_min":24,"x_max":440,"o":"m 193 1307 l 271 1307 l 440 1072 l 394 1072 l 232 1219 l 69 1072 l 24 1072 l 193 1307 m 190 978 q 240 984 222 978 q 264 999 257 990 q 274 1021 272 1008 l 274 0 l 190 0 l 190 978 z "},"Ï":{"ha":464,"x_min":39,"x_max":425,"o":"m 363 1225 q 406 1206 388 1225 q 425 1163 425 1188 q 406 1119 425 1138 q 363 1100 388 1100 q 318 1119 336 1100 q 300 1163 300 1138 q 318 1206 300 1188 q 363 1225 336 1225 m 101 1225 q 145 1206 126 1225 q 164 1163 164 1188 q 145 1119 164 1138 q 101 1100 126 1100 q 57 1119 75 1100 q 39 1163 39 1138 q 57 1206 39 1188 q 101 1225 75 1225 m 190 978 q 240 984 222 978 q 264 999 257 990 q 274 1021 272 1008 l 274 0 l 190 0 l 190 978 z "},"Ì":{"ha":464,"x_min":57,"x_max":336,"o":"m 190 978 q 240 984 222 978 q 264 999 257 990 q 274 1021 272 1008 l 274 0 l 190 0 l 190 978 m 336 1071 l 303 1071 l 57 1231 q 76 1268 72 1253 q 72 1306 79 1283 l 336 1071 z "},"Ñ":{"ha":1003,"x_min":143,"x_max":857,"o":"m 857 -11 l 857 978 l 774 978 l 774 201 l 235 978 l 143 978 l 143 0 l 226 0 l 226 857 l 833 -11 l 857 -11 m 303 1139 q 281 1129 288 1128 q 272 1138 275 1131 q 272 1158 269 1144 q 342 1219 300 1208 q 425 1224 385 1231 q 522 1189 471 1215 q 594 1165 563 1163 q 649 1179 626 1167 q 693 1219 674 1194 q 710 1226 704 1226 q 720 1220 717 1225 q 724 1209 724 1215 q 722 1199 724 1203 q 655 1121 694 1138 q 579 1108 615 1104 q 492 1139 536 1114 q 406 1165 439 1161 q 353 1165 374 1169 q 322 1151 332 1160 q 303 1139 311 1143 z "},"Ó":{"ha":1003,"x_min":53,"x_max":953,"o":"m 593 1272 q 621 1297 608 1288 q 653 1307 633 1307 q 683 1294 668 1307 q 697 1260 697 1281 q 683 1227 697 1239 q 642 1197 669 1215 l 440 1072 l 392 1072 l 593 1272 m 890 925 q 946 558 939 718 q 940 286 953 397 q 890 60 925 157 q 660 1 761 19 q 481 -20 558 -18 q 347 -11 403 -22 q 251 17 290 0 q 128 135 160 57 q 80 286 96 214 q 58 424 64 358 q 57 548 53 490 q 69 654 61 606 q 136 860 89 768 q 206 941 161 911 q 309 985 251 971 q 432 1000 367 999 q 563 994 497 1001 q 890 925 714 979 m 839 101 q 854 165 839 110 q 878 318 869 219 q 881 557 888 417 q 833 879 875 697 q 569 924 692 913 q 465 928 517 928 q 366 922 413 929 q 283 898 319 914 q 229 853 247 882 q 154 638 176 754 q 141 529 144 588 q 144 406 138 471 q 168 272 150 342 q 222 128 186 201 q 358 71 272 89 q 442 58 394 63 q 549 56 490 54 q 681 69 608 58 q 839 101 753 79 z "},"Ô":{"ha":1003,"x_min":53,"x_max":953,"o":"m 463 1307 l 540 1307 l 710 1072 l 664 1072 l 501 1219 l 339 1072 l 293 1072 l 463 1307 m 890 925 q 946 558 939 718 q 940 286 953 397 q 890 60 925 157 q 660 1 761 19 q 481 -20 558 -18 q 347 -11 403 -22 q 251 17 290 0 q 128 135 160 57 q 80 286 96 214 q 58 424 64 358 q 57 548 53 490 q 69 654 61 606 q 136 860 89 768 q 206 941 161 911 q 309 985 251 971 q 432 1000 367 999 q 563 994 497 1001 q 890 925 714 979 m 839 101 q 854 165 839 110 q 878 318 869 219 q 881 557 888 417 q 833 879 875 697 q 569 924 692 913 q 465 928 517 928 q 366 922 413 929 q 283 898 319 914 q 229 853 247 882 q 154 638 176 754 q 141 529 144 588 q 144 406 138 471 q 168 272 150 342 q 222 128 186 201 q 358 71 272 89 q 442 58 394 63 q 549 56 490 54 q 681 69 608 58 q 839 101 753 79 z "},"Ö":{"ha":1003,"x_min":53,"x_max":953,"o":"m 632 1225 q 676 1206 657 1225 q 694 1163 694 1188 q 676 1119 694 1138 q 632 1100 657 1100 q 588 1119 606 1100 q 569 1163 569 1138 q 588 1206 569 1188 q 632 1225 606 1225 m 371 1225 q 415 1206 396 1225 q 433 1163 433 1188 q 415 1119 433 1138 q 371 1100 396 1100 q 326 1119 344 1100 q 308 1163 308 1138 q 326 1206 308 1188 q 371 1225 344 1225 m 890 925 q 946 558 939 718 q 940 286 953 397 q 890 60 925 157 q 660 1 761 19 q 481 -20 558 -18 q 347 -11 403 -22 q 251 17 290 0 q 128 135 160 57 q 80 286 96 214 q 58 424 64 358 q 57 548 53 490 q 69 654 61 606 q 136 860 89 768 q 206 941 161 911 q 309 985 251 971 q 432 1000 367 999 q 563 994 497 1001 q 890 925 714 979 m 839 101 q 854 165 839 110 q 878 318 869 219 q 881 557 888 417 q 833 879 875 697 q 569 924 692 913 q 465 928 517 928 q 366 922 413 929 q 283 898 319 914 q 229 853 247 882 q 154 638 176 754 q 141 529 144 588 q 144 406 138 471 q 168 272 150 342 q 222 128 186 201 q 358 71 272 89 q 442 58 394 63 q 549 56 490 54 q 681 69 608 58 q 839 101 753 79 z "},"Ò":{"ha":1003,"x_min":53,"x_max":953,"o":"m 604 1072 l 571 1072 l 325 1232 q 344 1269 340 1254 q 340 1307 347 1285 l 604 1072 m 890 925 q 946 558 939 718 q 940 286 953 397 q 890 60 925 157 q 660 1 761 19 q 481 -20 558 -18 q 347 -11 403 -22 q 251 17 290 0 q 128 135 160 57 q 80 286 96 214 q 58 424 64 358 q 57 548 53 490 q 69 654 61 606 q 136 860 89 768 q 206 941 161 911 q 309 985 251 971 q 432 1000 367 999 q 563 994 497 1001 q 890 925 714 979 m 839 101 q 854 165 839 110 q 878 318 869 219 q 881 557 888 417 q 833 879 875 697 q 569 924 692 913 q 465 928 517 928 q 366 922 413 929 q 283 898 319 914 q 229 853 247 882 q 154 638 176 754 q 141 529 144 588 q 144 406 138 471 q 168 272 150 342 q 222 128 186 201 q 358 71 272 89 q 442 58 394 63 q 549 56 490 54 q 681 69 608 58 q 839 101 753 79 z "},"Õ":{"ha":1003,"x_min":53,"x_max":953,"o":"m 728 1247 q 707 1194 719 1219 q 676 1149 694 1169 q 633 1117 658 1129 q 578 1106 608 1106 q 524 1115 550 1106 q 475 1139 499 1125 q 433 1161 456 1150 q 388 1172 410 1172 q 339 1153 358 1172 q 311 1106 319 1133 l 275 1106 q 296 1158 283 1132 q 326 1203 308 1183 q 369 1235 344 1224 q 425 1247 393 1247 q 478 1238 453 1247 q 528 1214 504 1228 q 570 1192 547 1203 q 615 1181 593 1181 q 664 1200 644 1181 q 692 1247 683 1219 l 728 1247 m 890 925 q 946 558 939 718 q 940 286 953 397 q 890 60 925 157 q 660 1 761 19 q 481 -20 558 -18 q 347 -11 403 -22 q 251 17 290 0 q 128 135 160 57 q 80 286 96 214 q 58 424 64 358 q 57 548 53 490 q 69 654 61 606 q 136 860 89 768 q 206 941 161 911 q 309 985 251 971 q 432 1000 367 999 q 563 994 497 1001 q 890 925 714 979 m 839 101 q 854 165 839 110 q 878 318 869 219 q 881 557 888 417 q 833 879 875 697 q 569 924 692 913 q 465 928 517 928 q 366 922 413 929 q 283 898 319 914 q 229 853 247 882 q 154 638 176 754 q 141 529 144 588 q 144 406 138 471 q 168 272 150 342 q 222 128 186 201 q 358 71 272 89 q 442 58 394 63 q 549 56 490 54 q 681 69 608 58 q 839 101 753 79 z "},"Ú":{"ha":1003,"x_min":135,"x_max":875,"o":"m 593 1272 q 621 1297 608 1288 q 653 1307 633 1307 q 683 1294 668 1307 q 697 1260 697 1281 q 683 1227 697 1239 q 642 1197 669 1215 l 440 1072 l 392 1072 l 593 1272 m 135 978 q 180 984 163 978 q 206 999 197 990 q 218 1021 215 1008 l 218 249 q 237 175 222 207 q 272 121 251 143 q 318 83 293 99 q 368 60 343 68 q 501 40 428 39 q 599 47 557 39 q 673 70 642 56 q 725 103 704 85 q 758 142 746 122 q 792 247 789 188 l 792 978 l 875 978 l 875 247 q 859 155 875 194 q 817 86 843 115 q 756 38 790 57 q 688 7 722 19 q 501 -24 606 -22 q 381 -12 433 -24 q 291 19 329 0 q 226 62 253 38 q 182 111 199 86 q 135 247 140 171 l 135 978 z "},"Û":{"ha":1003,"x_min":135,"x_max":875,"o":"m 463 1307 l 540 1307 l 710 1072 l 664 1072 l 501 1219 l 339 1072 l 293 1072 l 463 1307 m 135 978 q 180 984 163 978 q 206 999 197 990 q 218 1021 215 1008 l 218 249 q 237 175 222 207 q 272 121 251 143 q 318 83 293 99 q 368 60 343 68 q 501 40 428 39 q 599 47 557 39 q 673 70 642 56 q 725 103 704 85 q 758 142 746 122 q 792 247 789 188 l 792 978 l 875 978 l 875 247 q 859 155 875 194 q 817 86 843 115 q 756 38 790 57 q 688 7 722 19 q 501 -24 606 -22 q 381 -12 433 -24 q 291 19 329 0 q 226 62 253 38 q 182 111 199 86 q 135 247 140 171 l 135 978 z "},"Ü":{"ha":1003,"x_min":135,"x_max":875,"o":"m 632 1225 q 676 1206 657 1225 q 694 1163 694 1188 q 676 1119 694 1138 q 632 1100 657 1100 q 588 1119 606 1100 q 569 1163 569 1138 q 588 1206 569 1188 q 632 1225 606 1225 m 371 1225 q 415 1206 396 1225 q 433 1163 433 1188 q 415 1119 433 1138 q 371 1100 396 1100 q 326 1119 344 1100 q 308 1163 308 1138 q 326 1206 308 1188 q 371 1225 344 1225 m 135 978 q 180 984 163 978 q 206 999 197 990 q 218 1021 215 1008 l 218 249 q 237 175 222 207 q 272 121 251 143 q 318 83 293 99 q 368 60 343 68 q 501 40 428 39 q 599 47 557 39 q 673 70 642 56 q 725 103 704 85 q 758 142 746 122 q 792 247 789 188 l 792 978 l 875 978 l 875 247 q 859 155 875 194 q 817 86 843 115 q 756 38 790 57 q 688 7 722 19 q 501 -24 606 -22 q 381 -12 433 -24 q 291 19 329 0 q 226 62 253 38 q 182 111 199 86 q 135 247 140 171 l 135 978 z "},"Ù":{"ha":1003,"x_min":135,"x_max":875,"o":"m 361 1197 q 319 1227 333 1215 q 306 1260 306 1239 q 320 1294 306 1281 q 350 1307 335 1307 q 382 1297 369 1307 q 410 1272 394 1288 l 611 1072 l 563 1072 l 361 1197 m 135 978 q 180 984 163 978 q 206 999 197 990 q 218 1021 215 1008 l 218 249 q 237 175 222 207 q 272 121 251 143 q 318 83 293 99 q 368 60 343 68 q 501 40 428 39 q 599 47 557 39 q 673 70 642 56 q 725 103 704 85 q 758 142 746 122 q 792 247 789 188 l 792 978 l 875 978 l 875 247 q 859 155 875 194 q 817 86 843 115 q 756 38 790 57 q 688 7 722 19 q 501 -24 606 -22 q 381 -12 433 -24 q 291 19 329 0 q 226 62 253 38 q 182 111 199 86 q 135 247 140 171 l 135 978 z "},"á":{"ha":694,"x_min":100,"x_max":578,"o":"m 578 454 q 556 516 572 490 q 515 558 539 542 q 461 584 490 575 q 403 597 432 593 q 249 594 333 607 q 222 587 233 592 q 210 575 210 582 q 229 572 219 571 q 240 575 235 572 q 326 575 289 581 q 390 558 363 569 q 435 531 417 547 q 465 496 454 514 q 493 397 492 453 q 319 338 390 368 q 203 283 247 308 q 117 226 150 254 q 101 158 101 190 q 103 101 100 125 q 117 49 107 72 q 188 -5 142 10 q 288 -19 233 -19 q 397 -6 342 -18 q 493 21 451 7 l 493 0 l 578 0 l 578 454 m 210 67 q 190 103 197 83 q 182 142 183 119 q 192 189 181 164 q 268 236 222 211 q 362 284 306 257 q 493 340 418 311 l 493 67 q 376 39 432 47 q 282 35 329 32 q 210 67 235 39 m 508 1001 q 505 964 501 979 q 524 926 508 949 l 278 767 l 244 767 l 508 1001 z "},"â":{"ha":694,"x_min":100,"x_max":578,"o":"m 308 1001 l 386 1001 l 556 767 l 510 767 l 347 914 l 185 767 l 139 767 l 308 1001 m 578 0 l 493 0 l 493 21 q 397 -6 451 7 q 288 -19 342 -18 q 188 -5 233 -19 q 117 49 142 10 q 103 101 107 72 q 101 158 100 125 q 117 226 101 190 q 203 283 150 254 q 319 338 247 308 q 493 397 390 368 q 465 496 492 453 q 435 531 454 514 q 390 558 417 547 q 326 575 363 569 q 240 575 289 581 q 229 572 235 572 q 210 575 219 571 q 222 587 210 582 q 249 594 233 592 q 403 597 333 607 q 461 584 432 593 q 515 558 490 575 q 556 516 539 542 q 578 454 572 490 l 578 0 m 210 67 q 282 35 235 39 q 376 39 329 32 q 493 67 432 47 l 493 340 q 362 284 418 311 q 268 236 306 257 q 192 189 222 211 q 182 142 181 164 q 190 103 183 119 q 210 67 197 83 z "},"ä":{"ha":694,"x_min":100,"x_max":578,"o":"m 272 914 q 281 864 279 885 q 279 831 282 843 q 272 806 276 815 q 215 794 236 794 q 182 800 193 794 q 164 817 168 806 q 155 853 156 838 q 157 881 154 869 q 167 901 160 893 q 194 917 178 914 q 229 919 211 921 q 272 914 249 918 m 533 914 q 542 864 540 885 q 540 831 543 843 q 533 806 538 815 q 476 794 497 794 q 443 800 454 794 q 425 817 429 806 q 416 853 417 838 q 418 881 415 869 q 428 901 421 893 q 456 917 439 914 q 490 919 472 921 q 533 914 510 918 m 578 0 l 493 0 l 493 21 q 397 -6 451 7 q 288 -19 342 -18 q 188 -5 233 -19 q 117 49 142 10 q 103 101 107 72 q 101 158 100 125 q 117 226 101 190 q 203 283 150 254 q 319 338 247 308 q 493 397 390 368 q 465 496 492 453 q 435 531 454 514 q 390 558 417 547 q 326 575 363 569 q 240 575 289 581 q 229 572 235 572 q 210 575 219 571 q 222 587 210 582 q 249 594 233 592 q 403 597 333 607 q 461 584 432 593 q 515 558 490 575 q 556 516 539 542 q 578 454 572 490 l 578 0 m 210 67 q 282 35 235 39 q 376 39 329 32 q 493 67 432 47 l 493 340 q 362 284 418 311 q 268 236 306 257 q 192 189 222 211 q 182 142 181 164 q 190 103 183 119 q 210 67 197 83 z "},"à":{"ha":694,"x_min":100,"x_max":578,"o":"m 578 0 l 493 0 l 493 21 q 397 -6 451 7 q 288 -19 342 -18 q 188 -5 233 -19 q 117 49 142 10 q 103 101 107 72 q 101 158 100 125 q 117 226 101 190 q 203 283 150 254 q 319 338 247 308 q 493 397 390 368 q 465 496 492 453 q 435 531 454 514 q 390 558 417 547 q 326 575 363 569 q 240 575 289 581 q 229 572 235 572 q 210 575 219 571 q 222 587 210 582 q 249 594 233 592 q 403 597 333 607 q 461 584 432 593 q 515 558 490 575 q 556 516 539 542 q 578 454 572 490 l 578 0 m 210 67 q 282 35 235 39 q 376 39 329 32 q 493 67 432 47 l 493 340 q 362 284 418 311 q 268 236 306 257 q 192 189 222 211 q 182 142 181 164 q 190 103 183 119 q 210 67 197 83 m 451 767 l 418 767 l 172 926 q 191 964 188 949 q 188 1001 194 979 l 451 767 z "},"å":{"ha":694,"x_min":100,"x_max":578,"o":"m 347 974 q 436 937 400 974 q 472 849 472 900 q 436 760 472 797 q 347 724 400 724 q 258 760 294 724 q 222 849 222 797 q 258 937 222 900 q 347 974 294 974 m 347 932 q 288 907 313 932 q 264 849 264 882 q 288 790 264 815 q 347 765 313 765 q 406 790 382 765 q 431 849 431 815 q 406 907 431 882 q 347 932 382 932 m 578 0 l 493 0 l 493 21 q 397 -6 451 7 q 288 -19 342 -18 q 188 -5 233 -19 q 117 49 142 10 q 103 101 107 72 q 101 158 100 125 q 117 226 101 190 q 203 283 150 254 q 319 338 247 308 q 493 397 390 368 q 465 496 492 453 q 435 531 454 514 q 390 558 417 547 q 326 575 363 569 q 240 575 289 581 q 229 572 235 572 q 210 575 219 571 q 222 587 210 582 q 249 594 233 592 q 403 597 333 607 q 461 584 432 593 q 515 558 490 575 q 556 516 539 542 q 578 454 572 490 l 578 0 m 210 67 q 282 35 235 39 q 376 39 329 32 q 493 67 432 47 l 493 340 q 362 284 418 311 q 268 236 306 257 q 192 189 222 211 q 182 142 181 164 q 190 103 183 119 q 210 67 197 83 z "},"ã":{"ha":694,"x_min":100,"x_max":578,"o":"m 578 454 q 556 516 572 490 q 515 558 539 542 q 461 584 490 575 q 403 597 432 593 q 249 594 333 607 q 222 587 233 592 q 210 575 210 582 q 229 572 219 571 q 240 575 235 572 q 326 575 289 581 q 390 558 363 569 q 435 531 417 547 q 465 496 454 514 q 493 397 492 453 q 319 338 390 368 q 203 283 247 308 q 117 226 150 254 q 101 158 101 190 q 103 101 100 125 q 117 49 107 72 q 188 -5 142 10 q 288 -19 233 -19 q 397 -6 342 -18 q 493 21 451 7 l 493 0 l 578 0 l 578 454 m 210 67 q 190 103 197 83 q 182 142 183 119 q 192 189 181 164 q 268 236 222 211 q 362 284 306 257 q 493 340 418 311 l 493 67 q 376 39 432 47 q 282 35 329 32 q 210 67 235 39 m 150 826 q 128 817 135 815 q 119 825 122 818 q 119 846 117 832 q 190 907 147 896 q 272 911 232 918 q 369 876 318 903 q 442 852 410 850 q 496 867 474 854 q 540 907 521 882 q 558 913 551 914 q 567 908 564 913 q 571 897 571 903 q 569 886 571 890 q 502 808 542 825 q 426 796 463 792 q 339 826 383 801 q 253 853 286 849 q 200 852 221 857 q 169 839 179 847 q 150 826 158 831 z "},"ç":{"ha":617,"x_min":49,"x_max":576,"o":"m 497 33 q 536 36 519 36 q 564 33 551 36 q 576 24 576 31 q 565 18 572 21 q 518 6 553 11 q 458 -4 490 1 q 396 -12 431 -8 q 324 -15 361 -15 q 297 -33 304 -22 q 286 -54 289 -43 q 286 -81 283 -67 q 339 -94 308 -86 q 397 -110 369 -103 q 463 -129 429 -119 q 471 -187 471 -161 q 467 -232 471 -212 q 454 -274 461 -256 q 409 -302 439 -293 q 344 -312 379 -311 q 276 -306 310 -312 q 217 -287 242 -300 q 206 -279 211 -285 q 198 -270 201 -275 q 194 -260 194 -265 q 215 -264 197 -258 q 233 -271 222 -267 q 293 -286 264 -282 q 345 -286 318 -289 q 392 -264 372 -283 q 404 -244 399 -257 q 411 -217 408 -233 q 413 -175 414 -200 q 381 -166 410 -174 q 319 -150 351 -158 q 233 -128 281 -140 l 233 -67 q 247 -36 236 -50 q 268 -14 258 -22 q 153 9 207 -10 q 76 72 100 28 q 63 136 68 101 q 53 204 57 165 q 49 288 49 243 l 49 299 q 53 382 49 343 q 63 450 57 421 q 76 514 68 485 q 117 558 92 540 q 175 585 143 575 q 242 598 207 594 q 314 601 278 601 q 492 581 396 600 q 521 574 510 578 q 539 568 532 571 l 550 563 q 538 551 550 554 q 510 549 525 549 q 471 551 493 549 q 294 549 358 560 q 199 521 231 538 q 150 475 161 501 q 133 378 135 422 q 131 299 131 335 q 134 209 131 254 q 153 111 138 164 q 204 61 164 81 q 308 33 239 43 q 497 33 376 22 z "},"é":{"ha":617,"x_min":75,"x_max":549,"o":"m 406 10 l 419 13 q 433 10 433 15 q 428 0 433 7 q 406 -10 424 -7 q 250 -14 319 -24 q 192 -1 221 -10 q 138 26 163 8 q 97 69 114 43 q 75 132 81 94 l 75 564 q 279 599 186 590 q 358 602 318 603 q 432 595 399 601 q 490 574 465 589 q 526 535 515 560 q 544 481 539 508 q 547 424 549 456 q 526 357 544 393 q 446 306 496 332 q 333 253 403 282 q 160 197 263 225 q 188 93 163 138 q 216 57 199 74 q 260 28 233 40 q 322 10 286 15 q 406 10 357 4 m 160 244 q 291 299 235 272 q 385 347 347 326 q 461 394 429 372 q 471 442 472 419 q 463 481 469 464 q 442 518 456 500 q 366 549 414 544 q 272 546 318 553 q 160 518 218 538 l 160 244 m 467 1001 q 463 964 460 979 q 482 926 467 949 l 236 767 l 203 767 l 467 1001 z "},"ê":{"ha":617,"x_min":75,"x_max":549,"o":"m 269 1001 l 347 1001 l 517 767 l 471 767 l 308 914 l 146 767 l 100 767 l 269 1001 m 406 10 l 419 13 q 433 10 433 15 q 428 0 433 7 q 406 -10 424 -7 q 250 -14 319 -24 q 192 -1 221 -10 q 138 26 163 8 q 97 69 114 43 q 75 132 81 94 l 75 564 q 279 599 186 590 q 358 602 318 603 q 432 595 399 601 q 490 574 465 589 q 526 535 515 560 q 544 481 539 508 q 547 424 549 456 q 526 357 544 393 q 446 306 496 332 q 333 253 403 282 q 160 197 263 225 q 188 93 163 138 q 216 57 199 74 q 260 28 233 40 q 322 10 286 15 q 406 10 357 4 m 160 244 q 291 299 235 272 q 385 347 347 326 q 461 394 429 372 q 471 442 472 419 q 463 481 469 464 q 442 518 456 500 q 366 549 414 544 q 272 546 318 553 q 160 518 218 538 l 160 244 z "},"ë":{"ha":617,"x_min":75,"x_max":549,"o":"m 231 914 q 239 864 238 885 q 238 831 240 843 q 231 806 235 815 q 173 794 194 794 q 140 800 151 794 q 122 817 126 806 q 113 853 114 838 q 115 881 113 869 q 125 901 118 893 q 153 917 136 914 q 188 919 169 921 q 231 914 207 918 m 492 914 q 500 864 499 885 q 499 831 501 843 q 492 806 496 815 q 434 794 456 794 q 401 800 413 794 q 383 817 388 806 q 374 853 375 838 q 376 881 374 869 q 386 901 379 893 q 414 917 397 914 q 449 919 431 921 q 492 914 468 918 m 406 10 l 419 13 q 433 10 433 15 q 428 0 433 7 q 406 -10 424 -7 q 250 -14 319 -24 q 192 -1 221 -10 q 138 26 163 8 q 97 69 114 43 q 75 132 81 94 l 75 564 q 279 599 186 590 q 358 602 318 603 q 432 595 399 601 q 490 574 465 589 q 526 535 515 560 q 544 481 539 508 q 547 424 549 456 q 526 357 544 393 q 446 306 496 332 q 333 253 403 282 q 160 197 263 225 q 188 93 163 138 q 216 57 199 74 q 260 28 233 40 q 322 10 286 15 q 406 10 357 4 m 160 244 q 291 299 235 272 q 385 347 347 326 q 461 394 429 372 q 471 442 472 419 q 463 481 469 464 q 442 518 456 500 q 366 549 414 544 q 272 546 318 553 q 160 518 218 538 l 160 244 z "},"è":{"ha":617,"x_min":75,"x_max":549,"o":"m 406 10 l 419 13 q 433 10 433 15 q 428 0 433 7 q 406 -10 424 -7 q 250 -14 319 -24 q 192 -1 221 -10 q 138 26 163 8 q 97 69 114 43 q 75 132 81 94 l 75 564 q 279 599 186 590 q 358 602 318 603 q 432 595 399 601 q 490 574 465 589 q 526 535 515 560 q 544 481 539 508 q 547 424 549 456 q 526 357 544 393 q 446 306 496 332 q 333 253 403 282 q 160 197 263 225 q 188 93 163 138 q 216 57 199 74 q 260 28 233 40 q 322 10 286 15 q 406 10 357 4 m 160 244 q 291 299 235 272 q 385 347 347 326 q 461 394 429 372 q 471 442 472 419 q 463 481 469 464 q 442 518 456 500 q 366 549 414 544 q 272 546 318 553 q 160 518 218 538 l 160 244 m 410 767 l 376 767 l 131 926 q 149 964 146 949 q 146 1001 153 979 l 410 767 z "},"í":{"ha":386,"x_min":92,"x_max":371,"o":"m 151 568 l 151 0 l 235 0 l 235 607 q 197 577 221 585 q 151 568 172 569 m 356 1001 q 352 964 349 979 q 371 926 356 949 l 125 767 l 92 767 l 356 1001 z "},"î":{"ha":386,"x_min":-15,"x_max":401,"o":"m 154 1001 l 232 1001 l 401 767 l 356 767 l 193 914 l 31 767 l -15 767 l 154 1001 m 151 568 q 197 577 172 569 q 235 607 221 585 l 235 0 l 151 0 l 151 568 z "},"ï":{"ha":386,"x_min":-1,"x_max":388,"o":"m 117 914 q 125 864 124 885 q 124 831 126 843 q 117 806 121 815 q 59 794 81 794 q 26 800 38 794 q 8 817 13 806 q -1 853 0 838 q 1 881 -1 869 q 11 901 4 893 q 39 917 22 914 q 74 919 56 921 q 117 914 93 918 m 378 914 q 386 864 385 885 q 385 831 388 843 q 378 806 382 815 q 320 794 342 794 q 288 800 299 794 q 269 817 274 806 q 260 853 261 838 q 263 881 260 869 q 272 901 265 893 q 300 917 283 914 q 335 919 317 921 q 378 914 354 918 m 151 568 q 197 577 172 569 q 235 607 221 585 l 235 0 l 151 0 l 151 568 z "},"ì":{"ha":386,"x_min":18,"x_max":297,"o":"m 151 568 q 197 577 172 569 q 235 607 221 585 l 235 0 l 151 0 l 151 568 m 297 767 l 264 767 l 18 926 q 37 964 33 949 q 33 1001 40 979 l 297 767 z "},"ñ":{"ha":772,"x_min":146,"x_max":633,"o":"m 633 469 q 619 531 632 504 q 585 573 608 554 q 519 592 563 592 q 467 579 492 588 q 419 563 443 571 q 377 542 401 554 q 327 519 353 531 q 276 496 301 507 q 229 478 250 485 l 229 610 q 146 571 204 571 l 146 0 l 229 0 l 229 440 q 276 457 250 447 q 327 478 301 467 q 377 499 353 489 q 419 515 401 508 q 483 528 451 528 q 529 506 515 528 q 544 452 540 492 q 550 371 549 413 q 550 263 551 321 l 550 0 l 633 0 l 633 469 m 192 826 q 170 817 176 815 q 161 825 164 818 q 161 846 158 832 q 231 907 189 896 q 314 911 274 918 q 411 876 360 903 q 483 852 451 850 q 538 867 515 854 q 582 907 563 882 q 599 913 593 914 q 609 908 606 913 q 613 897 613 903 q 611 886 613 890 q 544 808 583 825 q 468 796 504 792 q 381 826 425 801 q 295 853 328 849 q 242 852 263 857 q 210 839 221 847 q 192 826 200 831 z "},"ó":{"ha":694,"x_min":68,"x_max":625,"o":"m 592 560 q 372 599 472 592 q 287 600 329 601 q 208 588 244 599 q 144 558 171 578 q 104 504 117 538 q 75 374 83 442 q 69 242 68 315 q 96 94 71 169 q 175 13 115 42 q 237 -8 200 0 q 324 -18 274 -17 q 441 -10 375 -19 q 592 22 507 -1 q 618 172 611 89 q 622 342 625 243 q 592 560 618 440 m 535 78 q 349 51 418 50 q 242 63 279 51 q 181 103 197 76 q 151 232 156 165 q 151 354 147 299 q 171 479 157 419 q 200 508 179 497 q 248 522 221 518 q 307 525 275 526 q 371 519 339 524 q 535 486 446 510 q 553 296 551 374 q 551 169 556 218 q 535 78 546 113 m 508 1001 q 505 964 501 979 q 524 926 508 949 l 278 767 l 244 767 l 508 1001 z "},"ô":{"ha":694,"x_min":68,"x_max":625,"o":"m 308 1001 l 386 1001 l 556 767 l 510 767 l 347 914 l 185 767 l 139 767 l 308 1001 m 592 560 q 622 342 618 440 q 618 172 625 243 q 592 22 611 89 q 441 -10 507 -1 q 324 -18 375 -19 q 237 -8 274 -17 q 175 13 200 0 q 96 94 115 42 q 69 242 71 169 q 75 374 68 315 q 104 504 83 442 q 144 558 117 538 q 208 588 171 578 q 287 600 244 599 q 372 599 329 601 q 592 560 472 592 m 535 78 q 551 169 546 113 q 553 296 556 218 q 535 486 551 374 q 371 519 446 510 q 307 525 339 524 q 248 522 275 526 q 200 508 221 518 q 171 479 179 497 q 151 354 157 419 q 151 232 147 299 q 181 103 156 165 q 242 63 197 76 q 349 51 279 51 q 535 78 418 50 z "},"ö":{"ha":694,"x_min":68,"x_max":625,"o":"m 592 560 q 622 342 618 440 q 618 172 625 243 q 592 22 611 89 q 441 -10 507 -1 q 324 -18 375 -19 q 237 -8 274 -17 q 175 13 200 0 q 96 94 115 42 q 69 242 71 169 q 75 374 68 315 q 104 504 83 442 q 144 558 117 538 q 208 588 171 578 q 287 600 244 599 q 372 599 329 601 q 592 560 472 592 m 535 78 q 551 169 546 113 q 553 296 556 218 q 535 486 551 374 q 371 519 446 510 q 307 525 339 524 q 248 522 275 526 q 200 508 221 518 q 171 479 179 497 q 151 354 157 419 q 151 232 147 299 q 181 103 156 165 q 242 63 197 76 q 349 51 279 51 q 535 78 418 50 m 272 914 q 281 864 279 885 q 279 831 282 843 q 272 806 276 815 q 215 794 236 794 q 182 800 193 794 q 164 817 168 806 q 155 853 156 838 q 157 881 154 869 q 167 901 160 893 q 194 917 178 914 q 229 919 211 921 q 272 914 249 918 m 533 914 q 542 864 540 885 q 540 831 543 843 q 533 806 538 815 q 476 794 497 794 q 443 800 454 794 q 425 817 429 806 q 416 853 417 838 q 418 881 415 869 q 428 901 421 893 q 456 917 439 914 q 490 919 472 921 q 533 914 510 918 z "},"ò":{"ha":694,"x_min":68,"x_max":625,"o":"m 592 560 q 622 342 618 440 q 618 172 625 243 q 592 22 611 89 q 441 -10 507 -1 q 324 -18 375 -19 q 237 -8 274 -17 q 175 13 200 0 q 96 94 115 42 q 69 242 71 169 q 75 374 68 315 q 104 504 83 442 q 144 558 117 538 q 208 588 171 578 q 287 600 244 599 q 372 599 329 601 q 592 560 472 592 m 535 78 q 551 169 546 113 q 553 296 556 218 q 535 486 551 374 q 371 519 446 510 q 307 525 339 524 q 248 522 275 526 q 200 508 221 518 q 171 479 179 497 q 151 354 157 419 q 151 232 147 299 q 181 103 156 165 q 242 63 197 76 q 349 51 279 51 q 535 78 418 50 m 451 767 l 418 767 l 172 926 q 191 964 188 949 q 188 1001 194 979 l 451 767 z "},"õ":{"ha":694,"x_min":68,"x_max":625,"o":"m 592 560 q 372 599 472 592 q 287 600 329 601 q 208 588 244 599 q 144 558 171 578 q 104 504 117 538 q 75 374 83 442 q 69 242 68 315 q 96 94 71 169 q 175 13 115 42 q 237 -8 200 0 q 324 -18 274 -17 q 441 -10 375 -19 q 592 22 507 -1 q 618 172 611 89 q 622 342 625 243 q 592 560 618 440 m 535 78 q 349 51 418 50 q 242 63 279 51 q 181 103 197 76 q 151 232 156 165 q 151 354 147 299 q 171 479 157 419 q 200 508 179 497 q 248 522 221 518 q 307 525 275 526 q 371 519 339 524 q 535 486 446 510 q 553 296 551 374 q 551 169 556 218 q 535 78 546 113 m 147 826 q 126 817 132 815 q 117 825 119 818 q 117 846 114 832 q 187 907 144 896 q 269 911 229 918 q 367 876 315 903 q 439 852 407 850 q 493 867 471 854 q 538 907 518 882 q 555 913 549 914 q 565 908 561 913 q 568 897 568 903 q 567 886 568 890 q 499 808 539 825 q 424 796 460 792 q 336 826 381 801 q 251 853 283 849 q 197 852 218 857 q 166 839 176 847 q 147 826 156 831 z "},"ú":{"ha":772,"x_min":143,"x_max":629,"o":"m 550 1001 q 547 964 543 979 q 565 926 550 949 l 319 767 l 286 767 l 550 1001 m 546 571 l 546 142 q 482 108 522 131 q 397 69 442 86 q 312 48 353 53 q 244 65 271 43 q 235 92 239 71 q 230 140 232 113 q 227 197 228 167 q 226 254 226 228 q 226 299 226 281 q 226 319 226 317 l 226 571 l 143 571 l 143 106 q 157 44 144 69 q 190 5 168 22 q 256 -8 213 -12 q 279 -4 263 -8 q 313 5 296 0 q 344 14 331 10 q 358 19 357 18 q 384 30 356 18 q 448 56 413 42 q 514 83 483 71 q 546 94 544 94 l 546 0 l 629 0 l 629 610 q 588 579 608 588 q 546 571 567 571 z "},"û":{"ha":772,"x_min":143,"x_max":629,"o":"m 347 1001 l 425 1001 l 594 767 l 549 767 l 386 914 l 224 767 l 178 767 l 347 1001 m 546 571 q 588 579 567 571 q 629 610 608 588 l 629 0 l 546 0 l 546 94 q 514 83 544 94 q 448 56 483 71 q 384 30 413 42 q 358 19 356 18 q 344 14 357 18 q 313 5 331 10 q 279 -4 296 0 q 256 -8 263 -8 q 190 5 213 -12 q 157 44 168 22 q 143 106 144 69 l 143 571 l 226 571 l 226 319 q 226 299 226 317 q 226 254 226 281 q 227 197 226 228 q 230 140 228 167 q 235 92 232 113 q 244 65 239 71 q 312 48 271 43 q 397 69 353 53 q 482 108 442 86 q 546 142 522 131 l 546 571 z "},"ü":{"ha":772,"x_min":143,"x_max":629,"o":"m 308 914 q 317 864 315 885 q 315 831 318 843 q 308 806 313 815 q 251 794 272 794 q 218 800 229 794 q 200 817 204 806 q 191 853 192 838 q 193 881 190 869 q 203 901 196 893 q 231 917 214 914 q 265 919 247 921 q 308 914 285 918 m 569 914 q 578 864 576 885 q 576 831 579 843 q 569 806 574 815 q 512 794 533 794 q 479 800 490 794 q 461 817 465 806 q 452 853 453 838 q 454 881 451 869 q 464 901 457 893 q 492 917 475 914 q 526 919 508 921 q 569 914 546 918 m 546 571 q 588 579 567 571 q 629 610 608 588 l 629 0 l 546 0 l 546 94 q 514 83 544 94 q 448 56 483 71 q 384 30 413 42 q 358 19 356 18 q 344 14 357 18 q 313 5 331 10 q 279 -4 296 0 q 256 -8 263 -8 q 190 5 213 -12 q 157 44 168 22 q 143 106 144 69 l 143 571 l 226 571 l 226 319 q 226 299 226 317 q 226 254 226 281 q 227 197 226 228 q 230 140 228 167 q 235 92 232 113 q 244 65 239 71 q 312 48 271 43 q 397 69 353 53 q 482 108 442 86 q 546 142 522 131 l 546 571 z "},"ù":{"ha":772,"x_min":143,"x_max":629,"o":"m 492 767 l 458 767 l 213 926 q 231 964 228 949 q 228 1001 235 979 l 492 767 m 546 571 q 588 579 567 571 q 629 610 608 588 l 629 0 l 546 0 l 546 94 q 514 83 544 94 q 448 56 483 71 q 384 30 413 42 q 358 19 356 18 q 344 14 357 18 q 313 5 331 10 q 279 -4 296 0 q 256 -8 263 -8 q 190 5 213 -12 q 157 44 168 22 q 143 106 144 69 l 143 571 l 226 571 l 226 319 q 226 299 226 317 q 226 254 226 281 q 227 197 226 228 q 230 140 228 167 q 235 92 232 113 q 244 65 239 71 q 312 48 271 43 q 397 69 353 53 q 482 108 442 86 q 546 142 522 131 l 546 571 z "},"∫":{"ha":518,"x_min":38,"x_max":490,"o":"m 64 -275 q 41 -271 44 -275 q 40 -261 38 -267 q 53 -246 43 -256 q 153 -156 118 -210 q 203 -53 188 -103 q 219 67 219 4 l 219 747 l 221 747 l 221 833 q 231 931 221 888 q 258 1010 242 975 q 297 1070 275 1044 q 342 1114 318 1096 q 464 1175 396 1157 q 486 1170 482 1175 q 488 1160 490 1165 q 475 1146 485 1154 q 374 1056 408 1110 q 325 953 339 1001 q 308 833 308 894 l 308 153 l 307 153 l 307 67 q 297 -33 307 11 q 269 -110 286 -76 q 229 -170 251 -144 q 185 -214 207 -196 q 64 -275 131 -257 z "},"≈":{"ha":750,"x_min":51,"x_max":692,"o":"m 99 464 q 67 451 76 449 q 56 463 58 453 q 56 492 51 474 q 101 547 75 526 q 155 577 126 568 q 213 587 183 586 q 271 583 243 588 q 407 535 338 572 q 510 500 465 499 q 586 519 554 501 q 649 578 622 539 q 674 587 664 588 q 688 579 683 586 q 692 563 692 572 q 690 549 692 554 q 647 479 671 506 q 596 439 622 453 q 542 422 569 425 q 489 421 514 418 q 365 464 429 426 q 245 501 292 496 q 169 501 199 507 q 125 482 140 494 q 99 464 110 469 m 99 228 q 67 215 76 213 q 56 226 58 217 q 56 256 51 238 q 101 311 75 290 q 155 341 126 332 q 213 351 183 350 q 271 347 243 351 q 407 299 338 336 q 510 264 465 263 q 586 283 554 265 q 649 342 622 303 q 674 351 664 351 q 688 343 683 350 q 692 327 692 336 q 690 313 692 318 q 647 243 671 269 q 596 203 622 217 q 542 185 569 189 q 489 185 514 182 q 365 228 429 190 q 245 265 292 260 q 169 265 199 271 q 125 246 140 258 q 99 228 110 233 z "},"≤":{"ha":750,"x_min":74,"x_max":686,"o":"m 686 7 l 149 7 l 111 7 q 103 51 111 35 q 74 82 94 68 l 686 82 l 686 7 m 75 418 l 75 504 l 608 739 q 637 697 617 715 q 678 669 657 678 q 650 658 660 661 q 627 649 640 654 q 590 635 614 644 q 517 605 565 625 q 388 551 468 585 q 185 463 308 517 l 678 260 l 678 175 l 75 418 z "},"≥":{"ha":750,"x_min":69,"x_max":682,"o":"m 69 82 l 682 82 q 653 51 661 68 q 644 7 644 35 l 607 7 l 69 7 l 69 82 m 78 175 l 78 260 l 571 463 q 367 551 447 517 q 239 605 288 585 q 166 635 190 625 q 128 649 142 644 q 106 658 115 654 q 78 669 96 661 q 119 697 99 678 q 147 739 139 715 l 681 504 l 681 418 l 78 175 z "},"\"":{"ha":694,"x_min":196,"x_max":535,"o":"m 267 983 q 310 906 294 943 q 330 835 325 868 q 332 772 335 801 q 322 717 329 742 q 265 610 306 658 q 247 601 251 600 q 242 608 243 603 q 243 625 240 614 q 270 742 272 685 q 253 842 268 799 q 221 913 238 886 q 204 939 204 939 q 196 966 196 950 q 211 993 196 982 q 242 1000 226 1003 q 267 983 257 997 m 467 983 q 510 906 494 943 q 530 835 525 868 q 532 772 535 801 q 522 717 529 742 q 465 610 506 658 q 447 601 451 600 q 442 608 443 603 q 443 625 440 614 q 470 742 472 685 q 453 842 468 799 q 421 913 438 886 q 404 939 404 939 q 396 966 396 950 q 411 993 396 982 q 442 1000 426 1003 q 467 983 457 997 z "},"!":{"ha":539,"x_min":207,"x_max":449,"o":"m 303 204 l 233 204 l 233 746 q 240 823 232 789 q 260 883 247 857 q 291 929 274 910 q 326 963 308 949 q 425 1006 369 994 q 443 997 449 1006 q 432 990 440 993 q 351 916 378 958 q 313 836 324 874 q 303 746 300 790 l 303 204 m 324 101 q 282 108 301 107 q 247 106 265 110 q 219 90 229 103 q 210 69 213 82 q 208 42 207 58 q 217 4 208 26 q 235 -12 221 -7 q 267 -18 246 -18 q 324 -7 288 -18 q 331 18 328 3 q 332 52 333 32 q 324 101 331 72 z "},"%":{"ha":1235,"x_min":178,"x_max":1075,"o":"m 399 -31 l 313 -31 q 455 265 392 131 q 573 508 518 399 q 679 701 628 617 q 785 846 731 786 q 903 942 840 906 q 1046 992 967 978 q 1069 990 1064 993 q 1069 981 1075 988 q 1035 961 1063 975 q 938 903 985 939 q 849 819 896 871 q 763 688 803 767 l 399 -31 m 444 874 q 449 838 446 858 q 453 738 453 801 q 449 632 453 667 q 444 597 446 611 q 390 510 426 533 q 308 486 354 486 q 244 501 269 488 q 204 529 219 514 q 178 569 188 547 l 178 738 l 178 901 q 204 943 188 925 q 244 972 219 958 q 308 986 269 986 q 390 963 354 986 q 444 874 426 940 m 392 617 q 401 735 403 675 q 392 856 400 796 q 378 904 388 883 q 353 936 369 922 q 308 949 336 950 q 263 941 281 949 q 233 897 244 933 l 233 579 q 263 533 244 543 q 308 522 281 522 q 353 535 336 519 q 378 568 369 550 q 392 617 388 589 m 1060 368 q 1064 332 1061 353 q 1068 232 1068 296 q 1064 126 1068 161 q 1060 92 1061 106 q 1006 4 1042 28 q 924 -19 969 -19 q 860 -5 885 -18 q 819 24 835 8 q 793 64 803 42 l 793 232 l 793 396 q 819 438 803 419 q 860 467 835 453 q 924 481 885 481 q 1006 458 969 481 q 1060 368 1042 435 m 1007 111 q 1017 230 1018 168 q 1007 350 1017 292 q 993 399 1003 378 q 968 431 985 417 q 924 443 951 444 q 878 435 896 443 q 849 392 860 428 l 849 74 q 878 27 860 38 q 924 17 896 17 q 968 29 951 14 q 993 63 985 44 q 1007 111 1003 83 z "},"#":{"ha":772,"x_min":42,"x_max":731,"o":"m 571 590 l 540 379 l 692 379 l 692 313 l 531 313 l 486 0 l 407 0 l 451 313 l 267 313 l 222 0 l 143 0 l 188 313 l 42 313 l 42 379 l 197 379 l 228 590 l 81 590 l 81 657 l 238 657 l 276 933 q 318 940 290 932 q 361 969 346 949 l 317 657 l 501 657 l 540 933 q 582 940 554 932 q 625 969 610 949 l 581 657 l 731 657 l 731 590 l 571 590 m 492 590 l 307 590 l 276 379 l 461 379 l 492 590 z "},"$":{"ha":772,"x_min":75,"x_max":701,"o":"m 357 1061 q 372 1067 368 1061 q 378 1075 376 1074 l 378 1000 q 480 988 431 997 q 567 968 529 979 q 650 940 611 956 q 660 915 671 919 q 629 913 650 910 q 567 928 604 917 q 461 942 507 939 q 378 942 415 944 l 378 547 q 490 517 440 531 q 575 492 539 503 q 647 469 617 479 q 689 343 676 400 q 701 241 701 286 q 692 161 701 196 q 669 101 683 126 q 576 13 636 42 q 472 -17 521 -10 q 378 -19 422 -24 l 378 -100 l 357 -100 l 357 -18 q 249 11 296 -11 q 169 57 201 33 q 103 115 132 83 q 86 144 89 132 q 87 161 83 156 q 98 167 90 167 q 113 160 106 167 q 153 122 129 139 q 178 106 165 114 q 275 63 231 78 q 357 42 319 47 l 357 467 q 265 493 307 481 q 194 515 224 506 q 132 536 158 526 q 85 658 96 599 q 78 763 75 717 q 94 864 81 817 q 144 929 115 903 q 207 971 172 956 q 280 993 242 986 q 357 1000 318 1000 l 357 1061 m 607 157 q 614 251 618 206 q 601 333 610 297 q 576 411 592 375 q 378 460 469 435 l 378 39 q 485 51 442 33 q 557 93 529 69 q 607 157 589 119 m 188 868 q 165 763 165 813 q 174 675 165 713 q 203 592 183 629 l 357 553 l 357 939 q 274 922 307 933 q 222 899 242 910 q 188 868 199 883 z "},"&":{"ha":1081,"x_min":114,"x_max":964,"o":"m 929 33 q 959 29 954 35 q 958 17 964 24 q 938 -3 953 8 q 854 -9 899 -15 q 767 17 810 -3 q 687 67 724 38 q 626 129 650 96 q 602 93 615 108 q 575 67 589 78 q 543 46 560 54 q 444 3 490 17 q 360 -13 399 -11 q 289 -8 321 -15 q 231 11 257 -1 q 128 93 169 38 q 117 193 121 142 q 115 287 114 244 q 121 358 117 329 q 132 392 125 388 q 247 447 189 415 q 360 507 306 479 q 326 558 340 535 q 301 596 311 581 q 282 629 290 614 q 269 738 269 692 q 275 817 269 785 q 293 879 281 853 q 394 913 338 907 q 500 914 451 918 q 617 893 557 908 q 630 785 628 833 q 631 700 632 736 q 625 626 629 658 q 551 554 593 583 q 460 492 508 525 q 549 358 508 414 q 618 260 589 303 q 665 323 632 286 q 737 388 697 360 q 819 428 776 417 q 894 413 861 439 q 885 397 894 401 q 865 390 876 392 q 836 390 851 388 q 736 324 779 376 q 661 196 693 272 q 711 135 682 168 q 776 75 740 101 q 851 35 811 49 q 929 33 890 21 m 364 639 q 394 586 379 611 q 424 543 408 561 q 479 581 456 564 q 519 611 503 599 q 554 638 539 626 q 560 710 561 663 q 551 851 560 758 q 478 861 513 860 q 418 860 444 863 q 361 850 388 857 q 352 770 353 808 q 354 703 351 732 q 364 639 357 668 m 524 113 q 559 144 544 125 q 579 185 574 164 q 477 333 525 264 q 396 451 429 403 q 333 418 364 435 q 276 389 301 401 q 219 361 247 374 q 216 269 217 313 q 217 193 215 226 q 219 121 218 154 q 337 76 282 82 q 433 78 392 69 q 524 113 482 88 z "}}}
